<svg width="128" height="47" viewBox="0 0 128 47" fill="none" xmlns="http://www.w3.org/2000/svg">
<path d="M25.5501 28.7772V22.2696C25.5501 20.34 24.8691 19.5076 23.4314 19.5076C22.599 19.5076 21.8802 19.886 21.4261 20.567C21.0856 21.1345 20.9343 21.702 20.9343 22.7992V28.815H17.7562V22.6101C17.7562 21.5507 17.6427 20.9075 17.3778 20.4535C17.0373 19.886 16.3184 19.5454 15.5996 19.5454C14.0862 19.5454 13.1781 20.6048 13.1781 22.4966V28.815H10V16.7457H12.989L13.1781 17.7294C14.351 16.897 15.1834 16.5943 16.3563 16.5943C17.8697 16.5943 18.9669 17.124 20.1776 18.4482C21.5396 17.1618 22.7125 16.5943 24.1503 16.5943C25.7393 16.5943 27.1014 17.2375 27.9337 18.4104C28.5769 19.3184 28.7661 19.9995 28.7661 21.7777V28.815H25.5501V28.7772ZM66.8659 28.7772V16.7457H69.8548L70.044 18.1077C71.0277 17.0483 71.8979 16.5943 72.8816 16.5943C73.2221 16.5943 73.5627 16.6322 74.0923 16.7457V19.7724C73.9032 19.7346 73.714 19.7346 73.6762 19.7346C72.5033 19.7346 71.7466 19.9616 71.0656 20.5291C70.2332 21.2102 70.0818 21.7399 70.0818 23.4424V28.7772H66.8659ZM89.9073 28.7772H86.1238L84.1943 21.5129L82.4539 28.7772H78.5947L75.3031 16.7078H78.5947L80.6 24.8802L82.5295 16.7078H85.9725L88.0534 24.8802L89.983 16.7078H93.3125L89.9073 28.7772ZM43.2569 22.8749C43.2569 26.4692 40.5706 29.1555 36.9006 29.1555C33.2685 29.1555 30.5822 26.4692 30.5822 22.8749C30.5822 19.2806 33.2685 16.5943 36.9006 16.5943C40.5328 16.5943 43.2569 19.2806 43.2569 22.8749ZM33.6847 22.8749C33.6847 24.8802 35.0467 26.2801 36.9006 26.2801C38.7167 26.2801 40.1166 24.8802 40.1166 22.8749C40.1166 20.8697 38.7167 19.4698 36.9006 19.4698C35.0467 19.4698 33.6847 20.8697 33.6847 22.8749ZM65.3525 22.8749C65.3525 26.4692 62.6662 29.1555 58.9962 29.1555C55.3641 29.1555 52.6778 26.4692 52.6778 22.8749C52.6778 19.2806 55.3641 16.5943 58.9962 16.5943C62.6662 16.5943 65.3525 19.2806 65.3525 22.8749ZM55.7802 22.8749C55.7802 24.8802 57.1423 26.2801 58.9962 26.2801C60.8123 26.2801 62.2122 24.8802 62.2122 22.8749C62.2122 20.8697 60.8123 19.4698 58.9962 19.4698C57.1423 19.4698 55.7802 20.8697 55.7802 22.8749ZM51.7319 25.7125C51.1266 25.8639 50.8617 25.9017 50.4455 25.9017C49.2348 25.9017 48.9321 25.4855 48.9321 24.01V19.3563H51.7319V16.7457H48.9321V13H45.6783V16.7457H43.7866V19.3563H45.6783V25.372C45.6783 26.7341 45.7918 27.2259 46.1702 27.7556C46.662 28.4366 47.7214 28.815 49.1591 28.815C50.105 28.815 50.9752 28.7015 51.7319 28.4745V25.7125ZM104.02 24.8423V20.9075C104.02 18.9779 103.717 18.4104 102.733 17.6537C101.863 16.9348 100.652 16.5943 99.1012 16.5943C97.2851 16.5943 95.8096 16.9727 94.1827 17.9185L95.5826 20.34C96.7933 19.6968 98.004 19.3184 99.0256 19.3184C99.8201 19.3184 100.425 19.5833 100.652 20.0751C100.766 20.34 100.766 20.2643 100.766 21.0967C98.004 21.2858 96.2258 21.6264 95.1286 22.2696C94.1449 22.8371 93.5395 23.9343 93.5395 25.1072C93.5395 27.3773 95.6204 29.1177 98.2689 29.1177C99.6687 29.1177 100.577 28.7015 101.258 27.7935C101.901 28.6258 102.696 29.0798 103.604 29.0798C103.717 29.0798 103.793 29.0798 103.868 29.0798L105.193 26.7719C104.209 26.5449 104.02 26.2422 104.02 24.8423ZM100.804 24.7667C100.804 25.826 99.9714 26.5071 98.6472 26.5071C97.5122 26.5071 96.7555 25.9395 96.7555 25.0693C96.7555 24.3505 97.2473 23.9343 98.4959 23.6694C99.2904 23.4803 99.9336 23.4424 100.804 23.4046V24.7667ZM108.106 16.7457H104.36L109.468 25.599L104.36 34.4524H108.106L113.214 25.599L108.106 16.7457ZM113.743 18.3347C113.743 19.3184 114.538 20.113 115.522 20.113C116.505 20.113 117.3 19.3184 117.3 18.3347C117.3 17.351 116.505 16.5565 115.522 16.5565C114.538 16.5565 113.743 17.351 113.743 18.3347Z" fill="black"/>
</svg>
