<svg width="128" height="47" viewBox="0 0 128 47" fill="none" xmlns="http://www.w3.org/2000/svg">
<g clip-path="url(#clip0_1000_5195)">
<path d="M117 27.0027C116.555 27.0052 116.11 27.0027 115.665 27.0154C115.474 27.023 115.435 26.9367 115.418 26.7565C115.307 25.5382 115.184 24.3199 115.053 23.0078C114.158 24.4875 113.306 25.8935 112.433 27.3352C111.567 25.9113 110.723 24.5255 109.828 23.056C109.765 23.6753 109.709 24.1981 109.661 24.721C109.596 25.4164 109.53 26.1118 109.475 26.8073C109.463 26.9468 109.426 27.0179 109.279 27.0154C108.875 27.0078 108.471 27.0103 108.064 27.0154C107.924 27.0154 107.9 26.9494 107.917 26.8174C108.171 24.891 108.422 22.9621 108.669 21.0331C108.759 20.3453 108.841 19.6575 108.935 18.8809C109.305 19.4824 109.634 20.0128 109.958 20.5433C110.723 21.792 111.485 23.0408 112.249 24.287C112.455 24.622 112.455 24.6194 112.668 24.2692C113.71 22.556 114.753 20.8428 115.798 19.1296C115.83 19.0763 115.868 19.0281 115.943 18.9164C116.016 19.4468 116.081 19.9164 116.142 20.3885C116.381 22.2438 116.618 24.0991 116.858 25.9545C116.894 26.2438 116.887 26.5408 116.998 26.8174V27.0078L117 27.0027Z" fill="black"/>
<path d="M21.194 16C21.344 16.1117 21.448 16.2513 21.5278 16.434C22.4301 18.5152 23.3397 20.5914 24.2565 22.665C24.3388 22.8528 24.3242 22.9594 24.167 23.0888C23.6663 23.4975 23.1171 23.7995 22.5196 24.0127C22.3334 24.0812 22.2535 24.0279 22.1737 23.8528C21.8109 23.0482 21.4383 22.2513 21.0682 21.4518C21.0247 21.3579 20.9787 21.2665 20.9061 21.1168C20.6255 21.7411 20.3643 22.3223 20.103 22.901C19.953 23.236 19.7958 23.5685 19.6579 23.9086C19.6023 24.0482 19.5394 24.066 19.4063 24.0228C18.7605 23.8122 18.1823 23.4772 17.6525 23.0431C17.4929 22.9137 17.5606 22.7893 17.6211 22.6548C18.3226 21.0355 19.0241 19.4188 19.7256 17.7995C19.9168 17.3553 20.1151 16.9162 20.2917 16.467C20.3619 16.2868 20.4828 16.1523 20.5868 16H21.194Z" fill="black"/>
<path d="M13.6101 16C13.7601 16.1015 13.8375 16.2538 13.9029 16.4264C14.4834 18.0025 15.0712 19.5787 15.6542 21.1523C15.6784 21.2208 15.7002 21.2893 15.7196 21.3503C15.676 21.4162 15.6397 21.3756 15.6107 21.3579C14.7423 20.802 13.7916 20.5051 12.7853 20.4061C12.6014 20.3883 12.5264 20.3173 12.4611 20.1523C12.0087 18.9873 11.5491 17.8274 11.0895 16.665C11.0677 16.6091 11.0653 16.5381 11 16.5076C11 16.1692 11.1621 16 11.4862 16H13.6101Z" fill="black"/>
<path d="M30.6592 16C30.8648 16.1497 30.8986 16.3426 30.8067 16.5787C30.3326 17.7792 29.8633 18.9797 29.394 20.1827C29.3505 20.2944 29.3093 20.3807 29.1666 20.3909C28.1554 20.4619 27.212 20.7716 26.3339 21.3046C26.2831 21.335 26.2299 21.3731 26.167 21.3401L26.1718 21.3452C26.5903 20.1929 27.0088 19.0431 27.4297 17.8909C27.5942 17.4391 27.7684 16.9898 27.9305 16.533C28.0006 16.3325 28.0925 16.1523 28.2353 16H30.6616H30.6592Z" fill="black"/>
<path d="M37.6123 19.0534C38.1372 19.0534 38.6089 19.0559 39.0831 19.0534C39.2718 19.0534 39.279 19.2133 39.3226 19.33C39.833 20.7107 40.3386 22.094 40.8466 23.4747C40.8877 23.5889 40.9143 23.7158 41.0207 23.8224C41.3957 22.9646 41.7634 22.1194 42.1335 21.2742C42.4988 20.4366 42.864 19.6016 43.2511 18.7158C44.0083 20.4392 44.7485 22.1168 45.4911 23.8047C45.6242 23.6828 45.6411 23.5179 45.6943 23.3757C46.1854 22.0204 46.674 20.6651 47.1506 19.3047C47.2183 19.1143 47.2981 19.0382 47.4941 19.0483C47.8473 19.0661 48.2029 19.0712 48.556 19.0483C48.8802 19.028 48.7786 19.1904 48.7109 19.363C48.0722 21.0102 47.4336 22.6549 46.795 24.3021C46.4104 25.292 46.0282 26.2818 45.6193 27.3376C44.8186 25.5635 44.0421 23.8402 43.2342 22.0483C42.448 23.8224 41.686 25.5382 40.8974 27.3199C39.7919 24.5331 38.713 21.8148 37.6171 19.0559L37.6123 19.0534Z" fill="black"/>
<path d="M61.9302 22.6777C62.4261 22.6777 62.922 22.6777 63.4155 22.6777C63.5461 22.6777 63.6574 22.6701 63.6453 22.8706C63.5969 23.6549 63.5074 24.4315 63.176 25.1523C62.6801 26.231 61.8552 26.8579 60.7424 27.094C59.1096 27.4442 57.259 26.6904 56.3277 25.2894C54.7601 22.929 56.0204 19.6346 58.7443 19.0026C60.0844 18.6904 61.3496 18.9239 62.518 19.7031C62.7188 19.8376 62.7793 19.9544 62.6123 20.1701C62.4599 20.3655 62.3293 20.5838 62.2084 20.8021C62.1068 20.9874 62.0366 21.0102 61.8503 20.8732C61.0521 20.2818 60.1498 20.0914 59.1991 20.2919C58.0984 20.5254 57.467 21.2894 57.2445 22.4163C56.9421 23.962 57.7912 25.3884 59.262 25.7437C60.4763 26.0381 61.5407 25.5457 61.9761 24.5661C62.0027 24.5077 62.0269 24.4493 62.0439 24.3909C62.1576 24.0356 62.1309 23.995 61.7681 23.995C61.323 23.995 60.8779 23.9874 60.4328 23.9975C60.2465 24.0026 60.1812 23.9366 60.1909 23.7412C60.203 23.4671 60.2054 23.1904 60.1909 22.9138C60.1788 22.7031 60.2659 22.6676 60.44 22.6727C60.9359 22.6828 61.4318 22.6752 61.9253 22.6752L61.9302 22.6777Z" fill="black"/>
<path d="M88.3295 23.9161C89.4012 24.9364 90.4486 25.9339 91.5638 26.9948C90.8695 26.9948 90.2599 26.9948 89.6503 26.9948C89.5221 26.9948 89.4617 26.8831 89.3842 26.8019C88.5787 25.9694 87.7732 25.1344 86.9676 24.3019C86.9168 24.2486 86.8684 24.1978 86.8152 24.1471C86.7547 24.0887 86.687 24.0329 86.5999 24.076C86.5177 24.1166 86.5467 24.2055 86.5467 24.274C86.5467 25.0582 86.5298 25.8425 86.554 26.6242C86.5636 26.939 86.4717 27.0303 86.1839 27.0024C85.9032 26.9745 85.6178 26.9897 85.3348 26.9999C85.1703 27.0049 85.1025 26.9567 85.1025 26.7689C85.1074 24.2689 85.105 21.7689 85.1025 19.2689C85.1025 19.1344 85.1219 19.0481 85.2816 19.0506C86.2395 19.0735 87.2023 18.972 88.1505 19.1902C88.8569 19.3527 89.51 19.6268 89.8826 20.3425C90.5647 21.6496 90.0059 23.2385 88.6827 23.774C88.5811 23.8146 88.4771 23.8577 88.3295 23.9187V23.9161ZM87.1007 20.3882C86.9797 20.3882 86.8588 20.3933 86.7378 20.3882C86.612 20.3831 86.554 20.4288 86.5564 20.5684C86.5612 21.2131 86.5564 21.8603 86.5564 22.5049C86.5564 22.6014 86.583 22.6674 86.6919 22.6699C87.166 22.675 87.6425 22.6877 88.0876 22.4745C88.4844 22.2841 88.644 21.9288 88.6464 21.5024C88.6464 21.076 88.4602 20.7562 88.0731 20.5786C87.7611 20.4339 87.4345 20.3933 87.1007 20.3933V20.3882Z" fill="black"/>
<path d="M51.4537 18.693C51.9254 19.665 52.3632 20.5686 52.8011 21.4722C53.6381 23.198 54.4726 24.9265 55.3072 26.6524C55.4693 26.9848 55.4645 26.9874 55.1137 26.9874C54.7702 26.9874 54.4267 26.9772 54.0832 26.9925C53.9163 27.0001 53.8268 26.9366 53.759 26.7793C53.6066 26.4214 53.4349 26.0737 53.2801 25.7183C53.222 25.5864 53.1518 25.528 53.0067 25.528C51.9762 25.5331 50.9457 25.5331 49.9152 25.528C49.7604 25.528 49.6805 25.5864 49.6176 25.731C49.4725 26.0788 49.3056 26.4189 49.1556 26.7666C49.0903 26.9138 49.0129 27.0001 48.8387 26.9925C48.4541 26.9772 48.0694 26.9823 47.6872 26.9925C47.4937 26.9975 47.4598 26.9519 47.5518 26.764C48.5145 24.7843 49.4701 22.7996 50.428 20.8173C50.7618 20.1295 51.0932 19.4392 51.4561 18.6904L51.4537 18.693ZM50.3046 24.2716C50.878 24.2716 51.3908 24.2793 51.906 24.2691C52.1213 24.264 52.4213 24.3808 52.5253 24.2057C52.6124 24.061 52.3899 23.8148 52.3003 23.6168C52.0318 23.0102 51.7415 22.4112 51.4416 21.7666C51.0545 22.6168 50.6917 23.4163 50.3046 24.2691V24.2716Z" fill="black"/>
<path d="M98.7842 26.9897C100.129 24.2105 101.45 21.4847 102.8 18.6953C104.145 21.472 105.466 24.2029 106.815 26.9847C106.283 26.9847 105.795 26.9847 105.306 26.9847C105.183 26.9847 105.146 26.8704 105.103 26.774C104.941 26.4212 104.774 26.0709 104.621 25.7131C104.563 25.5786 104.491 25.5253 104.346 25.5278C103.315 25.5329 102.282 25.5329 101.252 25.5278C101.099 25.5278 101.019 25.5786 100.956 25.7283C100.811 26.0786 100.637 26.4136 100.487 26.7613C100.415 26.9263 100.323 26.9973 100.141 26.9923C99.7083 26.977 99.2728 26.9872 98.7842 26.9872V26.9897ZM102.761 21.7308C102.384 22.5583 102.035 23.3197 101.687 24.0811C101.61 24.2512 101.718 24.2537 101.83 24.2537C102.456 24.2537 103.083 24.2537 103.709 24.2537C103.852 24.2537 103.927 24.2308 103.845 24.0583C103.492 23.3095 103.146 22.5583 102.763 21.7308H102.761Z" fill="black"/>
<path d="M92.7949 23.0053C92.7949 21.787 92.7997 20.5687 92.79 19.3504C92.79 19.1144 92.8457 19.0459 93.0755 19.0484C94.4108 19.0611 95.7437 19.0586 97.079 19.0484C97.2895 19.0484 97.3717 19.1017 97.3499 19.3301C97.3161 19.6728 97.4902 20.122 97.2798 20.3377C97.0863 20.5357 96.6653 20.3885 96.3436 20.3936C95.7268 20.4012 95.1099 20.4012 94.493 20.3936C94.3116 20.391 94.2415 20.4393 94.2487 20.6423C94.2608 21.056 94.2608 21.4697 94.2487 21.8809C94.2439 22.0636 94.3068 22.1144 94.4761 22.1144C95.1534 22.1068 95.8308 22.1195 96.5081 22.1068C96.7162 22.1042 96.7984 22.1601 96.7839 22.3885C96.7669 22.6525 96.7669 22.919 96.7839 23.1829C96.7984 23.4164 96.7041 23.4647 96.5033 23.4596C95.8453 23.4494 95.1897 23.4621 94.5318 23.452C94.3334 23.4494 94.2415 23.49 94.2487 23.7286C94.2657 24.2591 94.2705 24.7895 94.2487 25.3174C94.2366 25.589 94.3431 25.6245 94.5632 25.622C95.5139 25.6119 96.4646 25.6245 97.4128 25.6119C97.6402 25.6093 97.7176 25.6728 97.7007 25.9139C97.6789 26.1982 97.6886 26.485 97.691 26.7718C97.691 26.9317 97.633 26.9976 97.4757 26.9976C95.9808 26.9951 94.4834 26.9926 92.9884 26.9976C92.7804 26.9976 92.7973 26.8707 92.7973 26.7286C92.7973 25.49 92.7973 24.2489 92.7973 23.0103L92.7949 23.0053Z" fill="black"/>
<path d="M65.0703 22.9951C65.0703 21.787 65.0752 20.5814 65.0655 19.3733C65.0655 19.1347 65.109 19.0459 65.3606 19.0484C66.6838 19.0636 68.007 19.0611 69.3303 19.0484C69.5722 19.0484 69.6496 19.1195 69.6302 19.3682C69.6109 19.622 69.6133 19.8758 69.6302 20.1296C69.6423 20.3403 69.5697 20.4012 69.3738 20.3986C68.515 20.3885 67.6563 20.4037 66.7975 20.3885C66.5653 20.3834 66.5024 20.4596 66.5145 20.6931C66.5338 21.0636 66.5363 21.4367 66.5145 21.8047C66.4976 22.0712 66.5967 22.1169 66.8241 22.1118C67.47 22.0966 68.1183 22.1118 68.7642 22.1042C68.9529 22.1017 69.04 22.1474 69.0255 22.3657C69.0085 22.6398 69.0085 22.9164 69.0255 23.1905C69.0376 23.4063 68.9577 23.4596 68.7642 23.4545C68.1086 23.4443 67.4507 23.4621 66.7951 23.4443C66.5532 23.4367 66.5121 23.5306 66.5169 23.7565C66.5314 24.2641 66.5338 24.7743 66.5169 25.2819C66.5072 25.5408 66.5701 25.6245 66.829 25.6195C67.7676 25.6017 68.7086 25.622 69.6472 25.6068C69.9084 25.6017 69.9907 25.6956 69.9616 25.9519C69.9253 26.2844 70.0995 26.7134 69.8866 26.9291C69.6907 27.1271 69.2891 26.9875 68.9795 26.9875C67.7772 26.9951 66.575 26.9849 65.3727 26.9951C65.1381 26.9951 65.0631 26.9367 65.0655 26.6778C65.0776 25.4494 65.0703 24.221 65.0703 22.9926V22.9951Z" fill="black"/>
<path d="M73.8926 27.1549C72.9419 27.1321 72.1025 26.7945 71.3622 26.1676C71.234 26.0585 71.2437 25.9798 71.3381 25.8554C71.5074 25.6321 71.667 25.4011 71.8219 25.1651C71.9283 25.0001 72.013 25.0077 72.1581 25.1296C72.7387 25.6194 73.4039 25.8605 74.1538 25.8047C74.657 25.7691 74.9715 25.5458 75.09 25.1448C75.2109 24.7336 75.0634 24.3148 74.7005 23.995C74.3715 23.7057 73.9821 23.5255 73.6047 23.3275C73.2878 23.16 72.9733 22.9925 72.6806 22.7869C71.9912 22.3021 71.6453 21.6346 71.7517 20.759C71.8533 19.9189 72.3492 19.3834 73.0773 19.094C74.2336 18.6372 75.2956 18.8681 76.2681 19.6422C76.4059 19.7539 76.4035 19.8402 76.3068 19.9773C76.1399 20.2158 75.9875 20.4671 75.8399 20.7184C75.7601 20.8554 75.7117 20.8783 75.5762 20.7615C75.0803 20.3377 74.5264 20.0915 73.8684 20.2539C73.5733 20.3275 73.3434 20.4874 73.2733 20.8148C73.2056 21.1397 73.3434 21.391 73.5757 21.594C73.8756 21.8529 74.2312 22.0077 74.5796 22.1778C75.0392 22.3986 75.4988 22.6219 75.881 22.9773C77.2478 24.2463 76.8462 26.325 75.1166 26.9468C74.7199 27.0889 74.3135 27.1524 73.8974 27.1549H73.8926Z" fill="black"/>
<path d="M81.3843 23.7207C81.3843 24.7055 81.3746 25.6903 81.3915 26.6751C81.3964 26.9492 81.3117 27.0202 81.0674 27.0025C80.7868 26.9796 80.5013 26.9796 80.2207 27.0025C79.9837 27.0202 79.9377 26.9238 79.9377 26.6954C79.945 24.7258 79.9353 22.7563 79.9498 20.7867C79.9522 20.4644 79.8748 20.3705 79.5676 20.3883C79.033 20.4162 78.496 20.3883 77.9613 20.4009C77.7581 20.406 77.6686 20.3553 77.6832 20.1243C77.7025 19.8502 77.7001 19.5735 77.6832 19.2994C77.6711 19.0964 77.7509 19.0532 77.9275 19.0558C79.7466 19.0608 81.5633 19.0608 83.3824 19.0558C83.5687 19.0558 83.6606 19.0938 83.6461 19.3147C83.6292 19.5888 83.6292 19.8654 83.6461 20.1395C83.6582 20.3578 83.5735 20.406 83.3848 20.4035C82.8091 20.3933 82.2334 20.4086 81.6576 20.3959C81.4472 20.3908 81.3819 20.4517 81.3843 20.6776C81.3964 21.6928 81.3891 22.7106 81.3891 23.7284C81.3891 23.7284 81.3891 23.7284 81.3867 23.7284L81.3843 23.7207Z" fill="black"/>
<path d="M13.4238 22.5534C13.9294 22.5763 14.3382 22.8605 14.7495 23.1194C15.3131 23.4747 15.8235 23.9113 16.3146 24.3681C16.9798 24.9874 17.7273 25.462 18.5643 25.7717C18.7844 25.8529 18.8086 25.924 18.7119 26.1397C18.2087 27.2717 17.7225 28.4087 17.2266 29.5433C17.1129 29.8047 16.9798 30.0204 16.646 29.9976C16.3339 29.9773 16.2178 29.7717 16.1186 29.5128C15.2405 27.2615 14.3576 25.0103 13.477 22.759C13.4504 22.693 13.4432 22.6194 13.4287 22.5483L13.4238 22.5534Z" fill="black"/>
<path d="M28.4916 22.4923C27.9667 23.8375 27.4659 25.1166 26.9652 26.3958C26.5564 27.4415 26.1451 28.4872 25.7387 29.5354C25.642 29.7867 25.521 29.9771 25.2259 29.9948C24.9187 30.0151 24.7614 29.8375 24.6478 29.5786C24.1422 28.4136 23.6366 27.2512 23.131 26.0862C23.0826 25.9771 23.0173 25.8654 23.1866 25.8121C24.4252 25.4238 25.3541 24.5329 26.3241 23.7029C26.8733 23.2334 27.4611 22.8197 28.1457 22.5938C28.24 22.5634 28.3344 22.5354 28.4892 22.4897L28.4916 22.4923Z" fill="black"/>
<path d="M26.1653 21.3399C26.1653 21.3399 26.1555 21.3653 26.1506 21.3755C26.1506 21.3704 26.1457 21.3602 26.1506 21.3577C26.1555 21.3501 26.1653 21.3476 26.1727 21.3425L26.1678 21.3374L26.1653 21.3399Z" fill="black"/>
<path d="M13.4294 22.5509C13.4294 22.5509 13.4123 22.5458 13.4073 22.5407C13.4049 22.5407 13.4073 22.5306 13.4073 22.5229C13.4123 22.5331 13.4196 22.5433 13.4245 22.5559L13.4294 22.5509Z" fill="black"/>
</g>
<defs>
<clipPath id="clip0_1000_5195">
<rect width="106" height="14" fill="white" transform="translate(11 16)"/>
</clipPath>
</defs>
</svg>
