<svg width="128" height="47" viewBox="0 0 128 47" fill="none" xmlns="http://www.w3.org/2000/svg">
<g clip-path="url(#clip0_1265_5149)">
<path fill-rule="evenodd" clip-rule="evenodd" d="M63.9991 4C53.5048 4 45 12.5072 45 22.9997C45 33.4922 53.5048 41.9994 63.9991 41.9994C74.4934 41.9994 82.9994 33.4916 82.9994 22.9997C82.9994 12.5078 74.4903 4 63.9991 4Z" fill="black"/>
<path fill-rule="evenodd" clip-rule="evenodd" d="M65.8408 23.0234C66.0366 22.78 66.1104 22.4615 66.0476 22.126C65.7932 20.9094 65.1379 19.9351 64.1538 19.3079C63.4779 18.8742 62.689 18.6448 61.8727 18.6448C60.9716 18.6448 60.1138 18.9187 59.392 19.4361C58.2633 20.2457 57.5898 21.569 57.5898 22.9746C57.5898 23.3279 57.6331 23.6781 57.7185 24.0161C58.1523 25.7286 59.6104 27.0232 61.348 27.2386C61.5158 27.2587 61.6842 27.2691 61.8477 27.2691C62.1954 27.2691 62.534 27.2246 62.8824 27.1331C63.3351 27.0232 63.7658 26.8384 64.1642 26.5834C64.54 26.3375 64.8866 26.0062 65.2508 25.5438L65.2746 25.5187C65.396 25.3662 65.4521 25.1698 65.429 24.98C65.4082 24.8104 65.3277 24.664 65.2026 24.5676C65.0836 24.4755 64.9427 24.4242 64.8042 24.4242C64.6657 24.4242 64.4723 24.4736 64.2936 24.7085L64.2795 24.7274C64.2203 24.8068 64.1593 24.8891 64.0892 24.9703C63.8482 25.243 63.5718 25.4681 63.2674 25.6383C62.8318 25.8726 62.3608 25.9934 61.869 25.9971C60.3243 25.98 59.3786 24.9422 59.0089 23.9788C58.9509 23.8056 58.9094 23.647 58.8826 23.4999C58.8826 23.4853 58.8808 23.4694 58.8802 23.4542L64.861 23.4529C65.2764 23.4438 65.6242 23.2907 65.8408 23.0222V23.0234ZM58.9271 22.2029C59.2682 20.8533 60.4701 19.9113 61.8507 19.9113C63.2314 19.9113 64.4351 20.8509 64.7774 22.2029H58.9265H58.9271ZM75.642 22.8996C75.642 23.5042 75.1545 23.9959 74.5554 23.9959C73.9563 23.9959 73.4664 23.5042 73.4664 22.8996C73.4664 22.295 73.9551 21.8038 74.5554 21.8038C75.1558 21.8038 75.642 22.2956 75.642 22.8996ZM69.9638 19.9418C69.9358 19.9418 69.8265 19.9424 69.7247 19.9546C68.4941 20.1084 68.3715 20.7075 68.3715 22.1406V26.5644C68.3715 26.9073 68.0951 27.1861 67.7553 27.1861C67.4154 27.1861 67.1415 26.9073 67.1391 26.5644L67.1372 19.3714C67.1397 19.0236 67.4106 18.7515 67.7547 18.7515C68.0213 18.7515 68.258 18.9285 68.3391 19.1804C68.7619 18.8693 69.2634 18.7052 69.7936 18.7052L69.9681 18.7076C70.3097 18.7076 70.5886 18.9876 70.5886 19.3317C70.5886 19.6758 70.3256 19.9272 69.9632 19.9406L69.9638 19.9418ZM57.5507 26.1764C57.6673 26.2954 57.7313 26.451 57.7313 26.6157C57.7313 26.9604 57.4531 27.2404 57.1109 27.2404C56.9449 27.2404 56.7857 27.1709 56.6637 27.044L53.4765 23.8318L50.2753 27.0592C50.1557 27.1752 50.0008 27.2392 49.8391 27.2392C49.4987 27.2392 49.2217 26.9598 49.2217 26.6157C49.2217 26.4455 49.2894 26.2862 49.4126 26.1679L52.6016 22.9435L49.4078 19.7234C49.2876 19.6032 49.2217 19.4446 49.2217 19.278C49.2217 18.9346 49.4987 18.6545 49.8391 18.6545C50.0038 18.6545 50.1582 18.7186 50.2753 18.8345L53.4796 22.0552L56.6716 18.8406C56.7893 18.7204 56.9455 18.6545 57.1109 18.6545C57.4531 18.6545 57.7313 18.9339 57.7313 19.278C57.7313 19.4446 57.6667 19.6002 57.5501 19.7155L54.3587 22.9466L57.5507 26.177V26.1764ZM74.5548 18.5972C72.2029 18.5972 70.2896 20.5275 70.2896 22.8996C70.2896 25.2716 72.2029 27.2014 74.5548 27.2014C76.9067 27.2014 78.8176 25.2716 78.8176 22.8996C78.8176 20.5275 76.9049 18.5972 74.5548 18.5972ZM74.5548 25.9147C72.9057 25.9147 71.5647 24.5621 71.5647 22.9002C71.5647 21.2383 72.9063 19.882 74.5548 19.882C76.2033 19.882 77.5419 21.2358 77.5419 22.9002C77.5419 24.5645 76.2021 25.9147 74.5548 25.9147Z" fill="white"/>
</g>
<defs>
<clipPath id="clip0_1265_5149">
<rect width="38" height="38" fill="white" transform="translate(45 4)"/>
</clipPath>
</defs>
</svg>
