<svg xmlns="http://www.w3.org/2000/svg" version="1.2" baseProfile="tiny" viewBox="0.00 0.00 1102.00 100.00"><div xmlns="" id="in-page-channel-node-id" data-channel-name="in_page_channel_f_fQAK"/>
<g stroke-width="2.00" fill="none" stroke-linecap="butt">
<path stroke="#f5300e" vector-effect="non-scaling-stroke" d="   M 595.71 12.98   Q 593.19 15.28 590.81 17.80   Q 579.39 29.91 577.87 45.21   C 576.45 59.40 580.87 72.51 590.85 82.90   Q 593.30 85.45 595.69 87.67"/>
<path stroke="#fb800e" vector-effect="non-scaling-stroke" d="   M 596.47 88.36   L 596.39 87.34   A 0.94 0.93 65.1 0 1 596.66 86.59   C 599.74 83.41 603.70 79.89 606.17 75.77   C 615.99 59.40 616.23 40.23 605.74 24.26   Q 604.06 21.69 600.93 18.50   Q 598.31 15.82 595.67 13.09"/>
<path stroke="#8d8fb9" vector-effect="non-scaling-stroke" d="   M 386.94 74.88   A 1.17 1.16 -79.2 0 0 387.77 76.11   C 391.01 77.08 395.89 76.19 395.07 71.88   C 394.63 69.57 391.35 68.71 390.08 67.94   A 1.40 1.39 54.6 0 1 390.51 65.38   Q 391.88 65.10 393.53 65.63   A 0.70 0.69 -75.0 0 0 394.42 65.11   L 394.49 64.79   A 1.02 1.02 0.0 0 0 393.79 63.60   C 390.61 62.66 385.34 64.40 387.51 68.62   C 388.23 70.02 390.61 70.67 392.05 71.47   A 1.53 1.52 -60.2 0 1 392.62 73.58   C 391.73 75.09 389.49 74.62 388.03 74.13   A 0.84 0.83 11.8 0 0 386.94 74.84   L 386.94 74.88"/>
<path stroke="#8d8fb9" vector-effect="non-scaling-stroke" d="   M 406.06 69.91   C 406.03 75.06 410.02 77.27 415.07 76.32   A 0.77 0.77 0.0 0 0 415.68 75.73   L 415.77 75.31   A 0.80 0.80 0.0 0 0 414.83 74.35   C 411.48 75.04 408.47 73.86 408.49 69.92   C 408.51 65.98 411.53 64.83 414.87 65.55   A 0.80 0.80 0.0 0 0 415.83 64.61   L 415.74 64.18   A 0.77 0.77 0.0 0 0 415.14 63.58   C 410.10 62.58 406.09 64.75 406.06 69.91"/>
<path stroke="#8d8fb9" vector-effect="non-scaling-stroke" d="   M 397.12 69.87   Q 397.16 75.23 397.16 75.58   A 0.72 0.72 0.0 0 0 397.88 76.29   L 404.02 76.29   A 0.77 0.77 0.0 0 0 404.79 75.52   L 404.79 75.05   A 0.74 0.74 0.0 0 0 404.05 74.31   L 400.14 74.31   A 0.71 0.71 0.0 0 1 399.43 73.60   L 399.43 71.45   A 0.76 0.75 4.1 0 1 400.30 70.70   Q 404.57 71.31 404.34 69.82   Q 404.55 68.33 400.28 69.00   A 0.76 0.75 -4.9 0 1 399.41 68.27   L 399.38 66.12   A 0.71 0.71 0.0 0 1 400.08 65.40   L 403.99 65.34   A 0.74 0.74 0.0 0 0 404.72 64.59   L 404.71 64.12   A 0.77 0.77 0.0 0 0 403.93 63.36   L 397.79 63.45   A 0.72 0.72 0.0 0 0 397.08 64.17   Q 397.08 64.52 397.12 69.87"/>
<path stroke="#8d8fb9" vector-effect="non-scaling-stroke" d="   M 422.66 76.56   C 428.95 76.56 427.69 69.13 427.66 64.25   A 0.79 0.78 89.9 0 0 426.88 63.47   L 426.00 63.47   A 0.77 0.77 0.0 0 0 425.23 64.30   C 425.45 67.53 426.35 74.69 422.65 74.69   C 418.96 74.69 419.86 67.53 420.07 64.30   A 0.77 0.77 0.0 0 0 419.30 63.47   L 418.42 63.47   A 0.79 0.78 -89.9 0 0 417.64 64.26   C 417.61 69.14 416.36 76.57 422.66 76.56"/>
<path stroke="#8d8fb9" vector-effect="non-scaling-stroke" d="   M 438.46 67.27   C 439.51 63.01 433.42 63.18 430.72 63.65   A 0.63 0.63 0.0 0 0 430.20 64.27   L 430.20 75.71   A 0.73 0.72 -90.0 0 0 430.92 76.44   L 431.74 76.44   A 0.73 0.73 0.0 0 0 432.47 75.71   L 432.47 71.61   A 0.60 0.60 0.0 0 1 433.09 71.01   Q 434.58 71.04 435.25 71.66   A 1.88 1.87 -75.2 0 1 435.80 72.61   L 436.57 75.72   A 0.93 0.93 0.0 0 0 437.47 76.43   L 438.45 76.43   A 0.51 0.51 0.0 0 0 438.96 75.85   Q 438.51 72.67 436.73 70.07"/>
<path stroke="#8d8fb9" vector-effect="non-scaling-stroke" d="   M 447.87 65.42   A 0.41 0.41 0.0 0 0 448.28 65.01   L 448.28 63.92   A 0.41 0.41 0.0 0 0 447.87 63.51   L 441.18 63.51   A 0.41 0.41 0.0 0 0 440.77 63.92   L 440.77 75.96   A 0.41 0.41 0.0 0 0 441.18 76.37   L 448.11 76.37   A 0.41 0.41 0.0 0 0 448.52 75.96   L 448.52 74.83   A 0.41 0.41 0.0 0 0 448.11 74.42   L 443.48 74.42   A 0.41 0.41 0.0 0 1 443.07 74.01   L 443.07 71.00   A 0.41 0.41 0.0 0 1 443.48 70.59   L 447.58 70.59   A 0.41 0.41 0.0 0 0 447.99 70.18   L 447.99 69.13   A 0.41 0.41 0.0 0 0 447.58 68.72   L 443.51 68.72   A 0.41 0.41 0.0 0 1 443.10 68.31   L 443.10 65.83   A 0.41 0.41 0.0 0 1 443.51 65.42   L 447.87 65.42"/>
<path stroke="#8d8fb9" vector-effect="non-scaling-stroke" d="   M 432.45 65.67   L 432.45 68.81   A 0.56 0.56 0.0 0 0 433.01 69.37   L 433.56 69.37   A 2.97 2.00 -0.1 0 0 436.53 67.37   L 436.53 67.11   A 2.97 2.00 -0.1 0 0 433.56 65.11   L 433.01 65.11   A 0.56 0.56 0.0 0 0 432.45 65.67"/>
</g>
<path fill="#1434cb" d="   M 164.42 73.50   C 172.68 77.35 179.86 79.31 189.96 79.05   C 195.02 78.91 202.36 76.82 203.42 71.37   C 204.38 66.45 200.19 63.09 196.22 61.02   C 184.86 55.09 170.42 48.76 169.53 33.77   Q 169.05 25.72 173.33 18.59   C 185.11 -0.99 214.47 -1.66 233.32 5.28   A 0.49 0.48 -74.4 0 1 233.63 5.84   L 229.51 25.07   A 0.42 0.41 -71.4 0 1 228.93 25.36   Q 216.61 19.60 203.21 21.60   C 198.16 22.36 191.60 28.17 196.82 33.43   Q 198.94 35.57 202.00 37.26   C 215.64 44.78 232.21 51.60 228.89 71.21   C 223.62 102.27 182.24 102.48 159.96 94.26   A 0.72 0.71 16.5 0 1 159.51 93.44   L 163.70 73.86   A 0.52 0.51 18.2 0 1 164.42 73.50   Z"/>
<path fill="#1b1f74" d="   M 433.97 2.82   L 433.05 7.13   A 0.34 0.34 0.0 0 1 432.62 7.38   Q 425.51 5.20 423.83 7.96   A 1.66 1.66 0.0 0 0 424.44 10.27   C 428.62 12.61 433.25 14.48 432.75 19.47   C 431.90 27.90 421.03 28.48 414.86 26.25   A 0.69 0.68 16.6 0 1 414.43 25.46   L 415.32 21.27   A 0.51 0.50 -69.2 0 1 416.06 20.93   C 418.57 22.33 423.54 23.30 425.79 20.76   A 1.97 1.80 35.4 0 0 425.18 17.90   Q 420.26 15.03 420.24 15.02   C 415.40 11.78 416.27 5.72 420.92 3.11   Q 426.65 -0.09 433.71 2.36   A 0.39 0.39 0.0 0 1 433.97 2.82   Z"/>
<path fill="#1b1f74" d="   M 405.46 1.99   L 395.18 26.53   A 0.90 0.89 -78.5 0 1 394.36 27.08   L 388.91 27.08   A 0.85 0.84 -7.0 0 1 388.09 26.44   L 382.94 6.36   A 2.97 2.96 -81.0 0 0 381.66 4.59   Q 380.51 3.87 375.76 2.50   Q 375.35 2.39 375.17 2.13   A 0.23 0.23 0.0 0 1 375.36 1.77   L 386.07 1.77   A 2.92 2.91 84.0 0 1 388.92 4.09   L 391.94 18.51   A 0.19 0.19 0.0 0 0 392.31 18.54   L 398.82 2.08   A 0.46 0.46 0.0 0 1 399.25 1.78   L 405.32 1.78   A 0.15 0.15 0.0 0 1 405.46 1.99   Z"/>
<path fill="#1b1f74" d="   M 409.24 27.05   L 403.72 27.05   A 0.39 0.39 0.0 0 1 403.34 26.58   L 408.58 2.09   A 0.39 0.39 0.0 0 1 408.97 1.78   L 414.48 1.78   A 0.39 0.39 0.0 0 1 414.86 2.25   L 409.63 26.74   A 0.39 0.39 0.0 0 1 409.24 27.05   Z"/>
<path fill="#1b1f74" d="   M 438.54 27.11   L 433.58 27.11   A 0.63 0.63 0.0 0 1 433.00 26.23   Q 438.94 12.25 442.08 4.57   Q 442.95 2.45 444.05 2.01   A 2.64 2.63 -57.0 0 1 445.03 1.80   L 450.19 1.75   A 0.63 0.63 0.0 0 1 450.82 2.25   L 455.85 26.31   A 0.65 0.65 0.0 0 1 455.21 27.10   L 450.81 27.10   A 1.13 1.13 0.0 0 1 449.68 25.97   L 449.68 24.02   A 0.84 0.83 0.0 0 0 448.84 23.19   L 441.39 23.19   A 0.88 0.88 0.0 0 0 440.56 23.77   L 439.63 26.35   A 1.16 1.16 0.0 0 1 438.54 27.11   Z   M 445.92 8.86   L 442.76 17.59   A 0.48 0.48 0.0 0 0 443.21 18.23   L 447.75 18.23   A 0.44 0.44 0.0 0 0 448.18 17.70   L 446.34 8.89   A 0.22 0.22 0.0 0 0 445.92 8.86   Z"/>
<rect fill="#666666" x="718.75" y="1.88" width="1.92" height="96.26" rx="0.67"/>
<path fill="#1434cb" d="   M 76.80 66.65   A 0.12 0.12 0.0 0 0 77.03 66.67   L 102.00 3.50   A 0.95 0.94 -79.0 0 1 102.88 2.90   L 127.51 2.90   A 0.32 0.32 0.0 0 1 127.80 3.34   L 88.48 97.16   A 0.49 0.47 10.6 0 1 88.03 97.45   L 62.85 97.45   A 0.53 0.53 0.0 0 1 62.34 97.05   Q 54.06 64.74 42.28 19.53   Q 41.28 15.66 36.54 13.44   Q 25.42 8.23 14.32 6.08   A 1.59 1.59 0.0 0 1 14.62 2.93   Q 47.13 2.84 54.57 2.94   Q 63.21 3.05 65.95 10.54   Q 66.53 12.11 67.68 18.36   Q 72.55 44.92 76.80 66.65   Z"/>
<path fill="#1434cb" d="   M 142.36 97.46   L 118.63 97.46   A 0.37 0.37 0.0 0 1 118.27 97.01   L 138.35 3.20   A 0.37 0.37 0.0 0 1 138.71 2.91   L 162.44 2.91   A 0.37 0.37 0.0 0 1 162.80 3.36   L 142.72 97.17   A 0.37 0.37 0.0 0 1 142.36 97.46   Z"/>
<path fill="#ea001a" d="   M 595.71 12.98   Q 593.19 15.28 590.81 17.80   Q 579.39 29.91 577.87 45.21   C 576.45 59.40 580.87 72.51 590.85 82.90   Q 593.30 85.45 595.69 87.67   C 575.15 102.96 547.75 100.89 530.67 81.77   Q 521.94 72.00 519.60 59.17   C 514.32 30.18 535.55 4.00 564.83 2.92   Q 578.39 2.42 591.28 10.27   Q 593.44 11.59 595.71 12.98   Z"/>
<path fill="#1434cb" d="   M 314.99 97.45   L 293.53 97.45   A 0.72 0.71 -6.0 0 1 292.83 96.89   L 290.06 83.65   A 0.42 0.39 83.7 0 0 289.67 83.32   L 259.08 83.32   A 0.55 0.53 -79.7 0 0 258.58 83.68   L 253.74 97.03   A 0.64 0.63 9.7 0 1 253.14 97.45   L 228.19 97.45   A 0.22 0.22 0.0 0 1 227.99 97.15   Q 230.72 90.63 264.65 9.67   C 267.00 4.07 271.77 2.83 278.02 2.87   Q 292.44 2.96 295.34 2.91   A 0.62 0.61 -6.1 0 1 295.96 3.40   L 315.50 96.82   A 0.52 0.52 0.0 0 1 314.99 97.45   Z   M 278.81 29.77   A 0.35 0.35 0.0 0 0 278.14 29.72   L 265.89 63.54   A 0.35 0.35 0.0 0 0 266.22 64.01   L 285.54 64.01   A 0.35 0.35 0.0 0 0 285.88 63.59   L 278.81 29.77   Z"/>
<path fill="#f79f19" d="   M 596.47 88.36   L 596.39 87.34   A 0.94 0.93 65.1 0 1 596.66 86.59   C 599.74 83.41 603.70 79.89 606.17 75.77   C 615.99 59.40 616.23 40.23 605.74 24.26   Q 604.06 21.69 600.93 18.50   Q 598.31 15.82 595.67 13.09   C 619.21 -5.97 654.15 2.77 667.45 29.45   C 674.67 43.94 673.68 61.93 664.85 75.84   C 655.92 89.92 640.05 98.17 623.12 97.72   Q 608.68 97.34 596.47 88.36   Z"/>
<path fill="#ff6002" d="   M 595.67 13.09   Q 598.31 15.82 600.93 18.50   Q 604.06 21.69 605.74 24.26   C 616.23 40.23 615.99 59.40 606.17 75.77   C 603.70 79.89 599.74 83.41 596.66 86.59   A 0.94 0.93 65.1 0 0 596.39 87.34   L 596.47 88.36   L 595.69 87.67   Q 593.30 85.45 590.85 82.90   C 580.87 72.51 576.45 59.40 577.87 45.21   Q 579.39 29.91 590.81 17.80   Q 593.19 15.28 595.71 12.98   Q 595.69 13.04 595.67 13.09   Z"/>
<path fill="#666666" d="   M 931.19 46.87   A 0.27 0.27 0.0 0 0 931.68 47.03   C 936.89 39.98 947.20 39.29 954.15 43.61   Q 960.24 47.39 960.51 55.28   Q 960.76 62.46 960.55 79.33   A 0.58 0.57 0.5 0 1 959.97 79.89   L 956.48 79.89   A 0.71 0.70 0.8 0 1 955.77 79.17   Q 956.06 69.01 955.71 57.17   Q 955.44 47.66 946.50 45.81   C 940.45 44.56 934.57 47.39 931.95 53.14   Q 931.02 55.19 931.17 60.46   Q 931.24 62.58 931.18 79.13   A 0.73 0.73 0.0 0 1 930.45 79.86   L 926.91 79.86   A 0.72 0.72 0.0 0 1 926.19 79.14   L 926.19 21.68   A 0.26 0.26 0.0 0 1 926.45 21.42   L 930.89 21.42   A 0.30 0.29 0.0 0 1 931.19 21.71   L 931.19 46.87   Z"/>
<path fill="#666666" d="   M 1087.50 41.45   A 0.36 0.36 0.0 0 1 1087.76 42.06   L 1070.55 59.27   A 0.56 0.55 -43.9 0 0 1070.53 60.04   L 1087.68 78.77   A 0.68 0.67 -21.2 0 1 1087.18 79.90   L 1083.84 79.90   A 3.01 2.99 -21.0 0 1 1081.62 78.92   L 1066.58 62.50   A 1.36 1.34 -20.9 0 0 1065.58 62.06   L 1060.74 62.06   A 0.58 0.57 -0.0 0 0 1060.16 62.63   L 1060.16 79.20   A 0.67 0.66 -0.0 0 1 1059.49 79.86   L 1056.03 79.86   A 0.63 0.62 0.0 0 1 1055.40 79.24   L 1055.40 21.68   A 0.28 0.28 0.0 0 1 1055.68 21.40   L 1059.89 21.40   A 0.27 0.27 0.0 0 1 1060.16 21.67   L 1060.16 57.28   A 0.43 0.42 0.0 0 0 1060.59 57.70   L 1065.39 57.70   A 1.55 1.54 22.8 0 0 1066.47 57.26   L 1081.79 41.94   A 1.67 1.66 -67.4 0 1 1082.97 41.45   L 1087.50 41.45   Z"/>
<path fill="#666666" d="   M 869.36 51.36   Q 869.35 54.98 869.62 56.29   C 871.97 67.84 880.78 75.24 892.58 75.44   Q 903.83 75.64 911.07 66.64   A 1.34 1.34 0.0 0 1 913.06 66.53   L 915.19 68.66   A 1.01 1.00 43.0 0 1 915.24 70.02   Q 904.02 82.98 887.49 79.93   Q 868.21 76.36 864.22 56.73   Q 863.91 55.21 863.92 51.35   Q 863.93 47.49 864.24 45.97   Q 868.32 26.36 887.62 22.88   Q 904.16 19.90 915.32 32.91   A 1.01 1.00 -42.8 0 1 915.27 34.27   L 913.13 36.39   A 1.34 1.34 0.0 0 1 911.14 36.28   Q 903.94 27.24 892.69 27.39   C 880.89 27.54 872.04 34.90 869.64 46.44   Q 869.37 47.74 869.36 51.36   Z"/>
<rect fill="#666666" x="764.18" y="23.10" width="5.14" height="56.72" rx="0.55"/>
<path fill="#666666" d="   M 784.28 23.54   A 0.37 0.37 0.0 0 1 784.65 23.17   L 807.80 23.13   A 27.86 26.44 -0.1 0 1 835.71 49.53   L 835.71 53.27   A 27.86 26.44 -0.1 0 1 807.90 79.75   L 784.75 79.79   A 0.37 0.37 0.0 0 1 784.38 79.42   L 784.28 23.54   Z   M 789.56 28.28   L 789.40 74.42   A 0.37 0.37 0.0 0 0 789.77 74.79   L 807.33 74.85   A 22.91 21.59 0.2 0 0 830.31 53.34   L 830.33 49.64   A 22.91 21.59 0.2 0 0 807.49 27.97   L 789.93 27.91   A 0.37 0.37 0.0 0 0 789.56 28.28   Z"/>
<path fill="#666666" d="   M 1003.74 74.26   C 999.00 79.01 993.01 80.87 986.29 80.37   C 961.94 78.53 963.61 40.17 988.58 40.96   C 999.63 41.30 1006.53 51.43 1005.69 61.91   A 0.62 0.61 2.0 0 1 1005.07 62.48   L 974.15 62.48   A 0.40 0.40 0.0 0 0 973.76 62.95   Q 975.93 74.86 986.90 76.12   C 991.88 76.70 997.47 74.58 1000.93 70.99   A 0.30 0.30 0.0 0 1 1001.36 71.00   L 1003.75 73.61   A 0.47 0.47 0.0 0 1 1003.74 74.26   Z   M 987.50 58.30   Q 998.24 58.31 1000.55 58.35   A 0.33 0.33 0.0 0 0 1000.88 57.99   C 1000.16 50.91 994.81 45.27 987.52 45.26   C 980.23 45.25 974.87 50.88 974.12 57.95   A 0.33 0.33 0.0 0 0 974.46 58.32   Q 976.77 58.29 987.50 58.30   Z"/>
<path fill="#666666" d="   M 1017.49 60.63   C 1017.46 66.86 1020.79 72.55 1026.71 74.83   Q 1035.15 78.09 1042.86 71.51   A 0.51 0.51 0.0 0 1 1043.55 71.54   L 1046.01 74.01   A 0.56 0.55 -46.1 0 1 1046.02 74.79   Q 1041.51 79.42 1035.53 80.15   Q 1020.56 82.00 1014.14 68.90   Q 1012.55 65.67 1012.57 60.61   Q 1012.59 55.55 1014.21 52.33   Q 1020.73 39.28 1035.69 41.26   Q 1041.66 42.04 1046.13 46.70   A 0.56 0.55 46.6 0 1 1046.12 47.48   L 1043.64 49.93   A 0.51 0.51 0.0 0 1 1042.95 49.96   Q 1035.29 43.31 1026.82 46.50   C 1020.88 48.74 1017.51 54.40 1017.49 60.63   Z"/>
<path fill="#1b1f74" d="   M 473.97 98.60   A 0.33 0.33 0.0 0 1 473.64 98.93   L 361.40 98.93   A 0.33 0.33 0.0 0 1 361.07 98.60   L 361.07 42.88   A 0.33 0.33 0.0 0 1 361.40 42.55   L 473.64 42.55   A 0.33 0.33 0.0 0 1 473.97 42.88   L 473.97 98.60   Z   M 386.94 74.88   A 1.17 1.16 -79.2 0 0 387.77 76.11   C 391.01 77.08 395.89 76.19 395.07 71.88   C 394.63 69.57 391.35 68.71 390.08 67.94   A 1.40 1.39 54.6 0 1 390.51 65.38   Q 391.88 65.10 393.53 65.63   A 0.70 0.69 -75.0 0 0 394.42 65.11   L 394.49 64.79   A 1.02 1.02 0.0 0 0 393.79 63.60   C 390.61 62.66 385.34 64.40 387.51 68.62   C 388.23 70.02 390.61 70.67 392.05 71.47   A 1.53 1.52 -60.2 0 1 392.62 73.58   C 391.73 75.09 389.49 74.62 388.03 74.13   A 0.84 0.83 11.8 0 0 386.94 74.84   L 386.94 74.88   Z   M 406.06 69.91   C 406.03 75.06 410.02 77.27 415.07 76.32   A 0.77 0.77 0.0 0 0 415.68 75.73   L 415.77 75.31   A 0.80 0.80 0.0 0 0 414.83 74.35   C 411.48 75.04 408.47 73.86 408.49 69.92   C 408.51 65.98 411.53 64.83 414.87 65.55   A 0.80 0.80 0.0 0 0 415.83 64.61   L 415.74 64.18   A 0.77 0.77 0.0 0 0 415.14 63.58   C 410.10 62.58 406.09 64.75 406.06 69.91   Z   M 397.12 69.87   Q 397.16 75.23 397.16 75.58   A 0.72 0.72 0.0 0 0 397.88 76.29   L 404.02 76.29   A 0.77 0.77 0.0 0 0 404.79 75.52   L 404.79 75.05   A 0.74 0.74 0.0 0 0 404.05 74.31   L 400.14 74.31   A 0.71 0.71 0.0 0 1 399.43 73.60   L 399.43 71.45   A 0.76 0.75 4.1 0 1 400.30 70.70   Q 404.57 71.31 404.34 69.82   Q 404.55 68.33 400.28 69.00   A 0.76 0.75 -4.9 0 1 399.41 68.27   L 399.38 66.12   A 0.71 0.71 0.0 0 1 400.08 65.40   L 403.99 65.34   A 0.74 0.74 0.0 0 0 404.72 64.59   L 404.71 64.12   A 0.77 0.77 0.0 0 0 403.93 63.36   L 397.79 63.45   A 0.72 0.72 0.0 0 0 397.08 64.17   Q 397.08 64.52 397.12 69.87   Z   M 422.66 76.56   C 428.95 76.56 427.69 69.13 427.66 64.25   A 0.79 0.78 89.9 0 0 426.88 63.47   L 426.00 63.47   A 0.77 0.77 0.0 0 0 425.23 64.30   C 425.45 67.53 426.35 74.69 422.65 74.69   C 418.96 74.69 419.86 67.53 420.07 64.30   A 0.77 0.77 0.0 0 0 419.30 63.47   L 418.42 63.47   A 0.79 0.78 -89.9 0 0 417.64 64.26   C 417.61 69.14 416.36 76.57 422.66 76.56   Z   M 436.73 70.07   Q 438.65 69.38 438.46 67.27   C 439.51 63.01 433.42 63.18 430.72 63.65   A 0.63 0.63 0.0 0 0 430.20 64.27   L 430.20 75.71   A 0.73 0.72 -90.0 0 0 430.92 76.44   L 431.74 76.44   A 0.73 0.73 0.0 0 0 432.47 75.71   L 432.47 71.61   A 0.60 0.60 0.0 0 1 433.09 71.01   Q 434.58 71.04 435.25 71.66   A 1.88 1.87 -75.2 0 1 435.80 72.61   L 436.57 75.72   A 0.93 0.93 0.0 0 0 437.47 76.43   L 438.45 76.43   A 0.51 0.51 0.0 0 0 438.96 75.85   Q 438.51 72.67 436.73 70.07   Z   M 447.87 65.42   A 0.41 0.41 0.0 0 0 448.28 65.01   L 448.28 63.92   A 0.41 0.41 0.0 0 0 447.87 63.51   L 441.18 63.51   A 0.41 0.41 0.0 0 0 440.77 63.92   L 440.77 75.96   A 0.41 0.41 0.0 0 0 441.18 76.37   L 448.11 76.37   A 0.41 0.41 0.0 0 0 448.52 75.96   L 448.52 74.83   A 0.41 0.41 0.0 0 0 448.11 74.42   L 443.48 74.42   A 0.41 0.41 0.0 0 1 443.07 74.01   L 443.07 71.00   A 0.41 0.41 0.0 0 1 443.48 70.59   L 447.58 70.59   A 0.41 0.41 0.0 0 0 447.99 70.18   L 447.99 69.13   A 0.41 0.41 0.0 0 0 447.58 68.72   L 443.51 68.72   A 0.41 0.41 0.0 0 1 443.10 68.31   L 443.10 65.83   A 0.41 0.41 0.0 0 1 443.51 65.42   L 447.87 65.42   Z"/>
<path fill="#fefefd" d="   M 386.94 74.88   L 386.94 74.84   A 0.84 0.83 11.8 0 1 388.03 74.13   C 389.49 74.62 391.73 75.09 392.62 73.58   A 1.53 1.52 -60.2 0 0 392.05 71.47   C 390.61 70.67 388.23 70.02 387.51 68.62   C 385.34 64.40 390.61 62.66 393.79 63.60   A 1.02 1.02 0.0 0 1 394.49 64.79   L 394.42 65.11   A 0.70 0.69 -75.0 0 1 393.53 65.63   Q 391.88 65.10 390.51 65.38   A 1.40 1.39 54.6 0 0 390.08 67.94   C 391.35 68.71 394.63 69.57 395.07 71.88   C 395.89 76.19 391.01 77.08 387.77 76.11   A 1.17 1.16 -79.2 0 1 386.94 74.88   Z"/>
<path fill="#fefefd" d="   M 408.49 69.92   C 408.47 73.86 411.48 75.04 414.83 74.35   A 0.80 0.80 0.0 0 1 415.77 75.31   L 415.68 75.73   A 0.77 0.77 0.0 0 1 415.07 76.32   C 410.02 77.27 406.03 75.06 406.06 69.91   C 406.09 64.75 410.10 62.58 415.14 63.58   A 0.77 0.77 0.0 0 1 415.74 64.18   L 415.83 64.61   A 0.80 0.80 0.0 0 1 414.87 65.55   C 411.53 64.83 408.51 65.98 408.49 69.92   Z"/>
<path fill="#fefefd" d="   M 404.34 69.82   Q 404.57 71.31 400.30 70.70   A 0.76 0.75 4.1 0 0 399.43 71.45   L 399.43 73.60   A 0.71 0.71 0.0 0 0 400.14 74.31   L 404.05 74.31   A 0.74 0.74 0.0 0 1 404.79 75.05   L 404.79 75.52   A 0.77 0.77 0.0 0 1 404.02 76.29   L 397.88 76.29   A 0.72 0.72 0.0 0 1 397.16 75.58   Q 397.16 75.23 397.12 69.87   Q 397.08 64.52 397.08 64.17   A 0.72 0.72 0.0 0 1 397.79 63.45   L 403.93 63.36   A 0.77 0.77 0.0 0 1 404.71 64.12   L 404.72 64.59   A 0.74 0.74 0.0 0 1 403.99 65.34   L 400.08 65.40   A 0.71 0.71 0.0 0 0 399.38 66.12   L 399.41 68.27   A 0.76 0.75 -4.9 0 0 400.28 69.00   Q 404.55 68.33 404.34 69.82   Z"/>
<path fill="#fefefd" d="   M 422.65 74.69   C 426.35 74.69 425.45 67.53 425.23 64.30   A 0.77 0.77 0.0 0 1 426.00 63.47   L 426.88 63.47   A 0.79 0.78 89.9 0 1 427.66 64.25   C 427.69 69.13 428.95 76.56 422.66 76.56   C 416.36 76.57 417.61 69.14 417.64 64.26   A 0.79 0.78 -89.9 0 1 418.42 63.47   L 419.30 63.47   A 0.77 0.77 0.0 0 1 420.07 64.30   C 419.86 67.53 418.96 74.69 422.65 74.69   Z"/>
<path fill="#fefefd" d="   M 438.46 67.27   Q 436.98 67.45 436.37 68.91   Q 435.96 69.88 436.73 70.07   Q 438.51 72.67 438.96 75.85   A 0.51 0.51 0.0 0 1 438.45 76.43   L 437.47 76.43   A 0.93 0.93 0.0 0 1 436.57 75.72   L 435.80 72.61   A 1.88 1.87 -75.2 0 0 435.25 71.66   Q 434.58 71.04 433.09 71.01   A 0.60 0.60 0.0 0 0 432.47 71.61   L 432.47 75.71   A 0.73 0.73 0.0 0 1 431.74 76.44   L 430.92 76.44   A 0.73 0.72 -90.0 0 1 430.20 75.71   L 430.20 64.27   A 0.63 0.63 0.0 0 1 430.72 63.65   C 433.42 63.18 439.51 63.01 438.46 67.27   Z   M 432.45 65.67   L 432.45 68.81   A 0.56 0.56 0.0 0 0 433.01 69.37   L 433.56 69.37   A 2.97 2.00 -0.1 0 0 436.53 67.37   L 436.53 67.11   A 2.97 2.00 -0.1 0 0 433.56 65.11   L 433.01 65.11   A 0.56 0.56 0.0 0 0 432.45 65.67   Z"/>
<path fill="#fefefd" d="   M 447.87 65.42   L 443.51 65.42   A 0.41 0.41 0.0 0 0 443.10 65.83   L 443.10 68.31   A 0.41 0.41 0.0 0 0 443.51 68.72   L 447.58 68.72   A 0.41 0.41 0.0 0 1 447.99 69.13   L 447.99 70.18   A 0.41 0.41 0.0 0 1 447.58 70.59   L 443.48 70.59   A 0.41 0.41 0.0 0 0 443.07 71.00   L 443.07 74.01   A 0.41 0.41 0.0 0 0 443.48 74.42   L 448.11 74.42   A 0.41 0.41 0.0 0 1 448.52 74.83   L 448.52 75.96   A 0.41 0.41 0.0 0 1 448.11 76.37   L 441.18 76.37   A 0.41 0.41 0.0 0 1 440.77 75.96   L 440.77 63.92   A 0.41 0.41 0.0 0 1 441.18 63.51   L 447.87 63.51   A 0.41 0.41 0.0 0 1 448.28 63.92   L 448.28 65.01   A 0.41 0.41 0.0 0 1 447.87 65.42   Z"/>
<path fill="#1b1f74" d="   M 432.45 65.67   A 0.56 0.56 0.0 0 1 433.01 65.11   L 433.56 65.11   A 2.97 2.00 -0.1 0 1 436.53 67.11   L 436.53 67.37   A 2.97 2.00 -0.1 0 1 433.56 69.37   L 433.01 69.37   A 0.56 0.56 0.0 0 1 432.45 68.81   L 432.45 65.67   Z"/>

</svg>