<svg width="128" height="47" viewBox="0 0 128 47" fill="none" xmlns="http://www.w3.org/2000/svg">
<g clip-path="url(#clip0_1265_5310)">
<path d="M36.1396 17.6313H40.6704C43.1338 17.6313 44.8572 18.7158 44.8572 20.8005C44.8572 21.8174 44.3575 22.8515 43.4275 23.3768V23.4106C44.8404 23.8346 45.3569 25.0714 45.3569 26.1392C45.3569 28.7831 43.117 29.7489 40.6704 29.7489H36.1396V17.6313ZM40.7055 22.3262C41.4639 22.3262 41.7911 21.7836 41.7911 21.208C41.7911 20.6324 41.4639 20.1746 40.6544 20.1746H39.1553V22.3269H40.7055V22.3262ZM40.9642 27.2071C41.843 27.2071 42.2733 26.6143 42.2733 25.9359C42.2733 25.2575 41.8598 24.6984 40.9809 24.6984H39.1546V27.2064H40.9634L40.9642 27.2071Z" fill="black"/>
<path d="M46.2104 21.0205H49.0705V22.4951C49.0705 22.7833 49.0362 23.0377 49.0362 23.0377H49.0705C49.4497 21.8513 50.5696 20.8682 51.8963 20.8682C52.0687 20.8682 52.2411 20.9019 52.2411 20.9019V23.7829C52.2411 23.7829 52 23.7319 51.6384 23.7319C50.932 23.7319 49.7777 23.9525 49.3467 25.2576C49.2437 25.5795 49.1918 25.9698 49.1918 26.444V29.749H46.2112V21.0205H46.2104Z" fill="black"/>
<path d="M56.0831 21.0205H53.1025V29.749H56.0831V21.0205Z" fill="black"/>
<path d="M56.0831 18.9869C56.0831 18.1772 55.4156 17.5205 54.5925 17.5205C53.7693 17.5205 53.1025 18.1772 53.1025 18.9869C53.1025 19.7966 53.7701 20.4533 54.5925 20.4533C55.4149 20.4533 56.0831 19.7966 56.0831 18.9869Z" fill="black"/>
<path d="M61.0473 30.8672C62.1153 30.8672 63.0972 30.4778 63.0972 29.1892V28.9011C63.0972 28.7997 63.1147 28.5791 63.1147 28.5791H63.0804C62.5639 29.1892 61.8918 29.4939 60.8581 29.4939C58.188 29.4939 56.8613 27.3416 56.8613 25.1045C56.8613 22.8674 58.1537 20.8164 60.8413 20.8164C62.4609 20.8164 63.2536 21.6637 63.2536 21.6637H63.3055C63.3055 21.6637 63.2879 21.5616 63.2879 21.4603V21.0198H66.0786V28.9513C66.0786 32.1378 63.4947 33.307 61.0649 33.307C59.8763 33.307 58.5664 32.9678 57.7051 32.5272L58.5496 30.3074C58.5496 30.3074 59.652 30.8665 61.0481 30.8665M63.1674 25.1383C63.1674 23.5961 62.3404 23.2569 61.4448 23.2569C60.3935 23.2569 59.8595 24.0028 59.8595 25.0024C59.8595 26.0868 60.376 27.0534 61.5653 27.0534C62.3404 27.0534 63.1674 26.6639 63.1674 25.1383Z" fill="black"/>
<path d="M72.763 20.8172C71.5912 20.8172 70.5574 21.3425 70.0578 22.2071H70.0234C70.0234 22.2071 70.0578 21.9016 70.0578 21.4611V17.1055L67.0771 18.7985V29.7484H70.0578V25.8843C70.0578 25.4775 70.0921 25.1046 70.2126 24.7654C70.4712 24.0029 71.0739 23.4776 71.9871 23.4776C72.6417 23.4776 72.9689 23.8168 72.9689 24.6303V29.7484H75.9496V24.0877C75.9496 21.63 74.5542 20.8165 72.7622 20.8165" fill="black"/>
<path d="M81.4287 27.2577C80.8603 27.2577 79.8434 27.1219 79.8434 26.1395V23.4619H81.7041V21.1738H79.8434V18.0068L76.8628 19.6999V26.5297C76.8628 29.4618 79.6023 29.8347 81.0152 29.8347C81.4973 29.8347 81.8246 29.7837 81.8246 29.7837V27.2412C81.8246 27.2412 81.6698 27.2584 81.4287 27.2584" fill="black"/>
<path d="M20 29.1584C20 29.4136 20.1404 29.6207 20.3364 29.7325C20.5325 29.8443 20.7858 29.8601 21.0101 29.7325L24.2623 27.8857V14L20 16.421V29.1584Z" fill="black"/>
<path d="M20.3364 30.372C20.5325 30.4838 20.7858 30.4995 21.0101 30.372L27.9615 26.4238L31.2137 28.2707C31.438 28.3983 31.5501 28.6212 31.5501 28.844C31.5501 29.0669 31.438 29.2906 31.2137 29.4181L25.2723 32.7922C25.048 32.9198 24.7955 32.904 24.5987 32.7922L20.3364 30.372Z" fill="black"/>
<path d="M26.3936 24.8937L31.7773 27.951C32.0016 28.0786 32.1137 28.3015 32.1137 28.5251V23.6832C32.1137 23.4603 32.0016 23.2367 31.7773 23.1091L26.3936 20.0518V24.8937Z" fill="black"/>
<path d="M84.4473 17.8369H88.6256C90.7922 17.8369 92.3569 19.2238 92.3569 21.4226C92.3569 23.6214 90.7922 25.0593 88.6256 25.0593H85.6336V29.7279H84.4473V17.8369ZM88.4707 24.0109C90.0873 24.0109 91.1355 23.0466 91.1355 21.4233C91.1355 19.8001 90.0865 18.886 88.4875 18.886H85.6336V24.0109H88.4707Z" fill="black"/>
<path d="M98.1166 24.4672H98.5979V24.2473C98.5979 22.6068 97.6863 22.0485 96.4489 22.0485C95.0215 22.0485 94.0069 22.8605 94.0069 22.8605L93.4568 21.9809C93.4568 21.9809 94.592 21.0166 96.5343 21.0166C98.6147 21.0166 99.7667 22.1498 99.7667 24.2811V29.7271H98.6491V28.7966C98.6491 28.3741 98.6834 28.0859 98.6834 28.0859H98.6491C98.6491 28.0859 97.9266 29.9297 95.76 29.9297C94.3158 29.9297 92.8198 29.1012 92.8198 27.4097C92.8198 24.534 96.6198 24.4664 98.1158 24.4664L98.1166 24.4672ZM95.95 28.9497C97.6008 28.9497 98.5979 27.2581 98.5979 25.7865V25.4143H98.099C96.7411 25.4143 94.0237 25.4653 94.0237 27.3422C94.0237 28.1369 94.6599 28.9489 95.9492 28.9489L95.95 28.9497Z" fill="black"/>
<path d="M100.765 31.8584C100.765 31.8584 101.246 32.2472 101.796 32.2472C102.553 32.2472 103.086 31.6385 103.43 30.8603L103.963 29.6596L100.352 21.2192H101.641L104.186 27.427C104.358 27.8495 104.496 28.3238 104.496 28.3238H104.531C104.531 28.3238 104.651 27.8503 104.823 27.427L107.316 21.2192H108.588L104.324 31.5035C103.877 32.5856 102.983 33.2798 101.831 33.2798C100.937 33.2798 100.318 32.7725 100.318 32.7725L100.765 31.8592V31.8584Z" fill="black"/>
</g>
<defs>
<clipPath id="clip0_1265_5310">
<rect width="88.5882" height="19.3077" fill="white" transform="translate(20 14)"/>
</clipPath>
</defs>
</svg>
