<svg width="128" height="47" viewBox="0 0 128 47" fill="none" xmlns="http://www.w3.org/2000/svg">
<g clip-path="url(#clip0_1000_5617)">
<path d="M33.3913 22.7082C33.4198 21.2764 33.3324 19.8472 33.2817 18.4173C33.197 16.0306 33.1022 13.6446 33.0068 11.2579C33.0007 11.1129 32.9601 10.9936 33.1821 10.9997C34.306 11.0316 35.4306 11.0451 36.5321 11.3216C36.8605 11.4043 37.0176 11.5398 36.9905 11.9254C36.9099 13.0706 36.8429 14.2193 36.8334 15.3672C36.826 16.278 36.8964 17.1901 36.9587 18.1002C37.0413 19.3125 37.0697 20.5309 37.285 21.7317C37.3527 22.1085 37.4116 22.1241 37.7318 21.9262C38.7345 21.3055 39.7887 20.7783 40.9891 20.7451C42.5158 20.7031 43.6844 21.4383 44.5761 22.631C45.572 23.9626 46.0452 25.5008 46.2727 27.1286C46.5408 29.047 46.748 30.9709 46.9254 32.9001C47.0351 34.0894 46.5259 34.8437 45.6275 35.4807C44.8049 36.0641 43.9119 36.0817 42.9843 35.892C42.5192 35.7971 42.2992 35.4332 42.3405 34.9324C42.4576 33.5182 42.6573 32.1093 42.6553 30.6876C42.6539 29.6616 42.4711 28.6709 41.9261 27.7764C41.6587 27.3366 41.308 26.9734 40.8787 26.6928C39.6296 25.8776 38.2342 26.1941 37.4421 27.462C36.7616 28.551 36.6635 29.7423 36.8354 30.9743C36.9519 31.8091 37.1008 32.6338 37.3811 33.4402C37.5416 33.9017 37.6073 34.4269 37.2586 34.8918C37.1245 35.07 37.021 35.1757 36.7677 35.133C36.0359 35.0097 35.2965 34.9345 34.5511 34.9683C34.3602 34.9772 34.1659 34.9792 33.9865 34.8965C33.6791 34.7549 33.4895 34.5523 33.4902 34.1741C33.4963 31.3653 33.4888 28.5571 33.4854 25.7482C33.4848 24.7344 33.4854 23.7207 33.4854 22.7069C33.4536 22.7069 33.4225 22.7069 33.3907 22.7076L33.3913 22.7082Z" fill="black"/>
<path d="M59.0763 33.6114C58.836 34.0085 58.4609 34.1793 58.079 34.3541C56.2754 35.1782 54.486 35.0013 52.66 34.3894C51.3303 33.9435 50.1468 33.3004 49.1495 32.3178C48.1184 31.302 47.6831 30.0761 47.7474 28.6246C47.8212 26.9582 48.2003 25.3969 49.0906 23.9786C50.3669 21.9449 52.2369 20.7143 54.5327 20.1763C55.8881 19.8584 57.1928 20.2129 58.3708 20.9562C58.6078 21.1053 58.6735 21.0667 58.8001 20.8322C59.0587 20.3538 59.4243 20.0306 60.0425 20.0902C60.557 20.1397 61.0776 20.097 61.5908 20.0102C61.773 19.9797 61.8468 20.036 61.8671 20.2271C61.9497 21.0125 61.9537 21.8006 61.9835 22.588C62.1095 25.9072 62.2408 29.2256 62.3688 32.5448C62.3877 33.0286 62.385 33.5138 62.4189 33.997C62.4378 34.2654 62.3024 34.4144 62.1101 34.5493C61.5326 34.9539 60.8827 35.0779 60.1907 35.0657C59.5333 35.0541 59.536 35.063 59.3823 34.4253C59.3173 34.1549 59.3072 33.8628 59.0777 33.6107L59.0763 33.6114ZM59.2801 28.609C59.2611 28.4186 59.2537 28.2268 59.2212 28.0391C59.012 26.8308 58.3742 25.8272 57.7012 24.8365C57.2185 24.1256 56.5679 23.654 55.752 23.4182C55.1468 23.2433 54.4819 23.0021 53.901 23.2325C52.2497 23.8878 50.9342 24.8954 50.6221 26.8268C50.3689 28.3962 50.7609 29.6953 52.0155 30.707C52.5889 31.1698 53.2233 31.5256 53.8936 31.8238C54.182 31.9519 54.4724 32.1097 54.7886 32.1009C55.706 32.0745 56.6065 31.939 57.4115 31.4558C58.4873 30.8107 59.0987 29.8532 59.2801 28.609Z" fill="black"/>
<path d="M79.1743 19.7608C79.5459 19.7608 79.917 19.7554 80.2887 19.7622C80.8364 19.7724 81.0571 20.0238 81.0097 20.5612C80.988 20.8078 80.9826 21.0558 80.9677 21.3032C80.9623 21.3892 80.9054 21.4977 80.9914 21.5526C81.0815 21.6108 81.1573 21.5092 81.2257 21.4618C81.6983 21.1351 82.1993 20.86 82.7057 20.5903C84.1349 19.8279 85.9819 20.4568 86.8776 21.3689C87.9149 22.4247 88.3278 23.7515 88.5174 25.1719C88.5587 25.4809 88.3813 25.7134 88.1714 25.9092C87.5404 26.4974 86.7761 26.8444 85.9629 27.0937C85.7016 27.1737 85.529 27.0422 85.4213 26.8118C85.2866 26.5231 85.2209 26.2148 85.1715 25.9024C85.1363 25.6795 85.0821 25.4626 85.0022 25.2505C84.7165 24.4956 84.2636 23.9257 83.3902 23.8783C82.5466 23.8322 81.8059 24.0782 81.2934 24.7917C80.9142 25.3196 80.9102 25.9607 80.8486 26.5719C80.636 28.6801 80.6048 30.7998 80.4715 32.9127C80.4302 33.5646 80.3645 34.2145 80.3117 34.8657C80.3029 34.9701 80.3029 35.0656 80.1512 35.0643C79.2406 35.0562 78.3212 35.1334 77.4329 34.8718C76.6469 34.6408 76.613 34.4978 76.6374 33.6446C76.7227 30.6507 76.8622 27.6575 77.003 24.665C77.0659 23.3334 76.9312 22.0107 76.8872 20.6838C76.8703 20.1742 76.9041 20.0909 77.3991 19.9404C77.98 19.7636 78.5818 19.8164 79.1756 19.7595L79.1743 19.7608Z" fill="black"/>
<path d="M68.1923 21.6237C68.4015 21.5573 68.4767 21.4069 68.5857 21.3012C69.1971 20.7042 69.9554 20.4162 70.7739 20.2867C71.4184 20.1844 71.9838 20.446 72.4387 20.8749C73.3724 21.7545 74.2844 22.6585 75.1828 23.5747C75.5301 23.9291 75.7969 24.3513 75.8605 24.8711C75.8835 25.0595 75.8605 25.2316 75.7556 25.3874C75.241 26.1525 74.5382 26.6804 73.6642 26.9521C73.1361 27.1161 72.891 26.9691 72.7089 26.4432C72.6026 26.1362 72.5369 25.8157 72.453 25.5013C72.2444 24.7186 71.5593 24.0877 70.8111 23.9894C69.9432 23.8756 68.9872 24.3296 68.5755 25.0215C68.2106 25.6355 68.149 26.3219 68.0712 27.0023C67.778 29.5543 67.606 32.1165 67.4625 34.6808C67.4422 35.0494 67.3305 35.1531 66.9852 35.1565C66.2858 35.1639 65.5878 35.1795 64.91 34.9701C64.3833 34.8075 64.3102 34.6943 64.3034 34.1536C64.2689 31.3928 64.2337 28.6314 64.1931 25.8706C64.168 24.1697 64.143 22.4681 64.0929 20.7679C64.082 20.3938 64.2235 20.223 64.556 20.1024C65.1646 19.8815 65.8024 19.956 66.4246 19.8788C66.7807 19.8347 67.1436 19.8327 67.5038 19.832C68.0678 19.832 68.277 20.0672 68.2391 20.6154C68.2167 20.94 68.2086 21.2653 68.193 21.6244L68.1923 21.6237Z" fill="black"/>
<path d="M89.1955 23.4578C89.1955 23.1542 89.1928 22.85 89.1955 22.5464C89.203 21.8193 89.6349 21.3253 90.3512 21.2304C91.1874 21.1192 92.0249 21.0176 92.8597 20.9004C93.0107 20.8794 93.0804 20.8909 93.1041 21.0623C93.3119 22.5654 93.5889 24.0576 93.7872 25.5633C93.9084 26.4856 94.0831 27.4045 94.1995 28.3302C94.3932 29.8711 94.5712 31.4142 94.9808 32.9179C95.0519 33.1781 94.9111 33.3529 94.7534 33.5135C94.4013 33.8727 93.9633 34.1092 93.513 34.3159C92.9409 34.5781 92.3553 34.8065 91.75 34.9847C91.1359 35.165 90.2883 34.8431 89.9416 34.2989C89.8624 34.1742 89.8617 34.0407 89.8529 33.91C89.685 31.2583 89.5212 28.606 89.3573 25.9536C89.3059 25.1221 89.2571 24.2907 89.207 23.4592C89.203 23.4592 89.1996 23.4592 89.1955 23.4585V23.4578Z" fill="black"/>
<path d="M93.7754 15.8091C93.7741 16.9143 93.3421 17.6658 92.4735 17.9064C91.3733 18.2113 90.3415 18.0013 89.4735 17.245C88.9386 16.7795 88.7701 16.1296 88.8276 15.433C88.9183 14.3223 89.4038 13.4346 90.3516 12.824C91.2013 12.2765 92.4471 12.5414 92.9833 13.3743C93.4647 14.1224 93.7707 14.9132 93.7754 15.8091Z" fill="black"/>
</g>
<defs>
<clipPath id="clip0_1000_5617">
<rect width="62" height="25" fill="white" transform="translate(33 11)"/>
</clipPath>
</defs>
</svg>
