<svg width="128" height="47" viewBox="0 0 128 47" fill="none" xmlns="http://www.w3.org/2000/svg">
<path d="M44.2584 33.6836L44.6487 18.3858C44.6523 18.2411 44.6204 18.0977 44.5559 17.9681C44.4914 17.8385 44.3962 17.7266 44.2786 17.6422L32.7012 9.31109C32.6316 9.25849 32.5506 9.2228 32.4648 9.20686H32.4446C32.3206 9.19069 32.1947 9.21642 32.087 9.27998L19.7522 16.6745C19.6106 16.7592 19.4877 16.8719 19.3909 17.0056C19.2942 17.1393 19.2256 17.2913 19.1893 17.4524L16.0217 31.9209C15.9934 32.0504 16.012 32.1857 16.0741 32.3028C16.1361 32.4199 16.2377 32.5111 16.3607 32.5604L29.1883 37.7146C29.3323 37.7719 29.4859 37.8014 29.6409 37.8017C29.7325 37.8022 29.8238 37.7918 29.913 37.7706L43.0672 34.7447C43.1242 34.7313 43.1776 34.7055 43.2235 34.6692C43.2695 34.6329 43.3069 34.587 43.3331 34.5346C43.3654 34.4679 43.3783 34.3936 43.3705 34.3199L43.8168 34.2172C43.9524 34.1863 44.0713 34.1052 44.1495 33.9901C44.1577 33.9804 44.1649 33.97 44.1713 33.959C44.2244 33.8766 44.2544 33.7815 44.2584 33.6836ZM44.1853 18.3765L43.8136 32.954L40.5885 26.1429C40.5352 26.0303 40.5106 25.9063 40.5169 25.7819L40.6724 20.7319C40.678 20.5822 40.6459 20.4335 40.5791 20.2994C40.5739 20.292 40.5692 20.2842 40.5651 20.2761L40.5542 20.259C40.4842 20.1366 40.3862 20.0326 40.2681 19.9556L36.735 17.7122C36.6084 17.636 36.5072 17.5239 36.4442 17.3902L32.9858 10.0859L44.008 18.0202C44.0646 18.0604 44.1104 18.114 44.1413 18.1761C44.1722 18.2383 44.1874 18.3071 44.1853 18.3765ZM32.2907 9.70315L36.0228 17.5893C36.1242 17.8036 36.2865 17.9832 36.4893 18.1058L39.9633 20.3165L35.3821 22.3701L35.7227 18.5072C35.7412 18.2935 35.7026 18.0787 35.6107 17.8849L31.8708 9.95673L32.2907 9.70315ZM31.6966 10.6771L35.194 18.0747C35.2511 18.1959 35.2753 18.3301 35.2639 18.4636L34.8254 23.3767C34.8113 23.5442 34.8447 23.7123 34.9217 23.8617C34.9987 24.0112 35.1162 24.1358 35.2608 24.2215L39.0054 26.4244C39.1355 26.5008 39.2396 26.6147 39.304 26.7512L42.7251 33.9637L29.5071 27.3221L31.6966 10.6771ZM19.6418 17.5582C19.6637 17.4578 19.7059 17.3629 19.7658 17.2794C19.8257 17.196 19.9021 17.1256 19.9902 17.0728L31.2768 10.3099L29.0484 27.2848L16.5053 31.8727L19.6418 17.5582ZM29.8104 37.3163C29.6606 37.3511 29.5037 37.3392 29.3609 37.2821L16.835 32.2445L29.2443 27.7064L42.5432 34.3962L29.8104 37.3163ZM43.1978 33.8937L39.727 26.5629C39.6227 26.3428 39.4547 26.1591 39.2449 26.0355L35.4988 23.8217C35.43 23.7806 35.3742 23.7211 35.3377 23.6498C35.3011 23.5786 35.2853 23.4985 35.2919 23.4187L35.337 22.8991L40.209 20.721L40.0535 25.7664C40.0442 25.9654 40.0843 26.1637 40.1701 26.3435L43.6892 33.7707L43.1978 33.8937Z" fill="black"/>
<path d="M51.833 18.7422H54.5093V29.7881H62.4401V32.4095H51.833V18.7422Z" fill="black"/>
<path d="M65.7329 18.3295C66.0512 18.3295 66.3623 18.4239 66.627 18.6007C66.8916 18.7776 67.0979 19.029 67.2198 19.3231C67.3416 19.6173 67.3736 19.941 67.3116 20.2533C67.2496 20.5656 67.0965 20.8525 66.8716 21.0777C66.6466 21.303 66.36 21.4565 66.0479 21.5188C65.7358 21.5811 65.4122 21.5494 65.1181 21.4278C64.824 21.3061 64.5725 21.1 64.3955 20.8354C64.2184 20.5708 64.1238 20.2597 64.1235 19.9412C64.1186 19.7284 64.1569 19.5167 64.236 19.3191C64.3151 19.1214 64.4335 18.9419 64.5839 18.7912C64.7343 18.6406 64.9137 18.522 65.1112 18.4427C65.3087 18.3633 65.5202 18.3248 65.7329 18.3295ZM67.005 32.4091H64.4594V22.9734H67.005V32.4091Z" fill="black"/>
<path d="M78.9348 27.7094C78.9348 30.4429 77.0081 32.6147 74.2696 32.6147C73.3351 32.6353 72.4224 32.3313 71.6867 31.7544V32.4094H69.1924V18.1431H71.738V23.5882C72.4707 23.0367 73.3669 22.7464 74.2836 22.7637C77.0081 22.7668 78.9348 24.92 78.9348 27.7094ZM76.3892 27.7094C76.3892 26.3092 75.4173 25.2389 74.0566 25.2389C72.6337 25.2389 71.6618 26.3061 71.6618 27.7094C71.6618 29.0769 72.6337 30.1442 74.0566 30.1442C75.4126 30.1442 76.3892 29.0769 76.3892 27.7094Z" fill="black"/>
<path d="M89.5775 28.6645H82.8208C83.1395 29.5979 84.0197 30.2374 85.1425 30.2374C85.5624 30.2421 85.9764 30.1377 86.3439 29.9342C86.7113 29.7308 87.0197 29.4353 87.2387 29.0768L89.296 30.3307C88.4734 31.7169 86.9634 32.6146 85.1051 32.6146C82.2594 32.6146 80.2207 30.4801 80.2207 27.7092C80.2207 24.9011 82.1661 22.7666 84.9543 22.7666C87.7425 22.7666 89.6708 24.8638 89.6708 27.6719C89.6684 28.0048 89.6372 28.3369 89.5775 28.6645ZM82.7648 26.7182H87.1189C86.8763 25.6883 86.0522 25.1267 84.9667 25.1267C83.8315 25.1267 83.0322 25.6883 82.7648 26.7182Z" fill="black"/>
<path d="M107.175 30.2749C107.998 30.2749 108.503 29.9373 108.503 29.4706C108.503 29.133 108.242 28.9276 107.755 28.8482C107.268 28.7689 106.688 28.7549 105.976 28.6429C104.199 28.3629 103.395 27.2769 103.395 25.9281C103.395 24.1125 104.891 22.7637 107.119 22.7637C109.296 22.7637 110.842 24.0565 110.862 25.9094H108.38C108.38 25.4038 107.875 25.0849 107.127 25.0849C106.379 25.0849 105.891 25.4225 105.891 25.8534C105.891 26.1521 106.135 26.3404 106.584 26.415C107.183 26.5084 107.632 26.5084 108.418 26.6204C110.176 26.846 111 27.9692 111 29.3539C111 31.2208 109.466 32.6116 107.164 32.6116C104.919 32.6116 103.308 31.283 103.308 29.3928H105.796C105.789 29.9373 106.332 30.2749 107.175 30.2749Z" fill="black"/>
<path d="M100.197 18.3296C100.515 18.3306 100.825 18.4257 101.089 18.6032C101.353 18.7806 101.559 19.0323 101.68 19.3265C101.801 19.6207 101.833 19.9443 101.77 20.2563C101.708 20.5683 101.554 20.8547 101.329 21.0795C101.104 21.3043 100.817 21.4573 100.505 21.5193C100.193 21.5812 99.8699 21.5493 99.576 21.4275C99.2822 21.3057 99.031 21.0996 98.8542 20.8351C98.6773 20.5706 98.5828 20.2596 98.5825 19.9414C98.5774 19.7281 98.6156 19.5159 98.695 19.3179C98.7743 19.1198 98.8931 18.9399 99.044 18.7892C99.195 18.6384 99.375 18.52 99.5732 18.441C99.7713 18.362 99.9834 18.3241 100.197 18.3296ZM101.47 32.4093H98.9246V22.9736H101.47V32.4093Z" fill="black"/>
<path d="M97.1492 22.9736H91.3115V32.4093H93.8556V25.5189H97.1492V22.9736Z" fill="black"/>
</svg>
