<svg width="128" height="47" viewBox="0 0 128 47" fill="none" xmlns="http://www.w3.org/2000/svg">
<g clip-path="url(#clip0_1000_5698)">
<mask id="mask0_1000_5698" style="mask-type:luminance" maskUnits="userSpaceOnUse" x="13" y="19" width="101" height="11">
<path d="M114 19H13V30H114V19Z" fill="white"/>
</mask>
<g mask="url(#mask0_1000_5698)">
<path d="M41.2953 21.9717C41.8666 21.0385 42.939 20.5508 44.4635 20.5508C46.829 20.5508 48.0274 21.7507 48.0274 24.3154C48.0274 26.8801 46.7099 28.1151 44.453 28.1151C42.6587 28.1151 41.7509 27.5222 41.2848 26.8205L41.2042 26.831C41.2147 27.1819 41.2147 27.5292 41.2147 27.9502C41.2147 28.5221 41.2393 29.0694 41.2498 29.6659H37.6963C37.7419 28.2449 37.7419 26.017 37.7419 24.1961C37.7419 22.6804 37.7419 21.6524 37.7173 20.6981H41.2357C41.2357 20.9297 41.2252 21.1402 41.2252 21.3507C41.2252 21.5367 41.2147 21.7226 41.2008 21.9331L41.2953 21.9682V21.9717ZM41.1552 25.61C41.6107 25.8065 42.1679 25.9013 42.9039 25.9013C44.0815 25.9013 44.5826 25.4451 44.5826 24.2452C44.5826 23.0453 44.0569 22.684 43.0686 22.684C41.9752 22.684 41.1586 23.1506 41.1586 24.3154V25.61H41.1552Z" fill="black"/>
<path d="M55.1097 23.6032C55.1097 22.8208 54.8294 22.5296 53.7114 22.5296C52.4989 22.5296 52.1975 22.8664 52.2325 23.5892C51.8962 23.5541 51.3705 23.5541 50.8133 23.5541C50.1859 23.5541 49.5306 23.5646 49.1592 23.6137C49.1346 21.3858 50.3822 20.5122 53.7816 20.5122C57.1809 20.5122 58.4635 21.5156 58.4635 23.4173C58.4635 24.361 58.4285 25.0277 58.4285 25.9258C58.4285 26.7082 58.4986 27.6275 58.6142 27.9678H55.8528C55.2359 27.9678 55.1414 27.9222 55.1414 27.2696C55.1414 27.1187 55.1414 26.8977 55.1519 26.6521H55.0817C54.6962 27.6555 53.6133 28.1327 51.9733 28.1327C49.9477 28.1327 48.9209 27.5959 48.9209 26.0802C48.9209 24.5645 50.1193 23.947 52.8213 23.947C53.743 23.947 54.5455 23.9716 55.1027 24.0628V23.6067L55.1097 23.6032ZM55.0992 25.0242C54.5876 24.9645 54.0514 24.954 53.4906 24.954C52.534 24.954 52.1275 25.1645 52.1275 25.6311C52.1275 26.0978 52.4639 26.2837 53.3961 26.2837C54.4088 26.2837 55.0958 25.8416 55.0958 25.0242H55.0992Z" fill="black"/>
<path d="M69.864 20.6982C69.2717 21.6069 68.5008 22.9472 67.6526 24.3366C68.5042 25.6873 69.3662 27.0171 69.9341 27.9644H65.8794C65.5991 27.3469 65.3432 26.9258 64.9717 26.2277C64.7755 25.8207 64.6213 25.4698 64.516 25.1681H64.411C64.2954 25.4839 64.1307 25.8558 63.9344 26.2627C63.5628 26.9609 63.293 27.4521 63.0722 27.9644H59.333C59.9602 27.0416 60.8224 25.6663 61.6845 24.2804C60.8329 22.9507 60.0198 21.6104 59.3891 20.7017H63.4542C63.7206 21.3193 64.0465 21.9157 64.411 22.6384C64.5862 22.9647 64.7018 23.2665 64.7965 23.5261H64.8911C64.9858 23.2594 65.1119 22.9647 65.2766 22.6279C65.648 21.8806 65.988 21.2421 66.2088 20.7053H69.8675L69.864 20.6982Z" fill="black"/>
<path d="M70.8203 27.9644C70.8308 27.7784 70.8447 27.4626 70.8447 27.0907C70.8447 26.8241 70.8342 26.5188 70.8342 26.2171C70.8342 24.3401 72.0923 23.8033 74.5736 23.3366C76.7639 22.8946 77.3211 22.7297 77.3211 22.0174C77.3211 21.5262 76.8656 21.235 75.8071 21.235C74.5841 21.235 74.153 21.5718 74.153 22.2244C74.153 22.3753 74.1635 22.5156 74.1775 22.7016C73.8061 22.677 73.2804 22.6665 72.7232 22.6665C72.0013 22.6665 71.3845 22.677 70.9428 22.7261C70.9184 22.4595 70.8974 22.2139 70.8974 21.9929C70.8974 19.986 72.506 19.0527 75.8596 19.0527C79.2135 19.0527 80.7625 20.1123 80.7625 21.863C80.7625 23.6138 79.7742 24.2664 77.0688 24.6734C74.9135 24.9751 74.3668 25.1154 74.2616 25.547C75.4041 25.5365 76.7534 25.5224 77.5348 25.5224C78.6773 25.5224 79.7251 25.4873 80.6083 25.4523C80.5978 25.8136 80.5838 26.3154 80.5838 26.803C80.5838 27.2907 80.5838 27.6907 80.6083 27.9573H70.8237L70.8203 27.9644Z" fill="black"/>
<path d="M85.2729 21.9717C85.8441 21.0385 86.9165 20.5508 88.441 20.5508C90.8065 20.5508 92.005 21.7507 92.005 24.3154C92.005 26.8801 90.6872 28.1151 88.4303 28.1151C86.636 28.1151 85.7284 27.5222 85.2624 26.8205L85.1817 26.831C85.1922 27.1819 85.1922 27.5292 85.1922 27.9502C85.1922 28.5221 85.2168 29.0694 85.2273 29.6659H81.6738C81.7192 28.2449 81.7192 26.017 81.7192 24.1961C81.7192 22.6804 81.7192 21.6524 81.6948 20.6981H85.2132C85.2132 20.9297 85.2027 21.1402 85.2027 21.3507C85.2027 21.5367 85.1922 21.7226 85.1782 21.9331L85.2729 21.9682V21.9717ZM85.1327 25.61C85.5883 25.8065 86.1455 25.9013 86.8814 25.9013C88.0589 25.9013 88.5601 25.4451 88.5601 24.2452C88.5601 23.0453 88.0345 22.684 87.0461 22.684C85.9528 22.684 85.1361 23.1506 85.1361 24.3154V25.61H85.1327Z" fill="black"/>
<path d="M99.0845 23.6032C99.0845 22.8208 98.804 22.5296 97.6861 22.5296C96.4735 22.5296 96.1721 22.8664 96.2072 23.5892C95.8708 23.5541 95.3451 23.5541 94.7879 23.5541C94.1605 23.5541 93.5052 23.5646 93.1338 23.6137C93.1092 21.3858 94.3568 20.5122 97.7562 20.5122C101.155 20.5122 102.438 21.5156 102.438 23.4173C102.438 24.361 102.403 25.0277 102.403 25.9258C102.403 26.7082 102.473 27.6275 102.589 27.9678H99.8274C99.2105 27.9678 99.116 27.9222 99.116 27.2696C99.116 27.1187 99.116 26.8977 99.1265 26.6521H99.0563C98.6708 27.6555 97.5879 28.1327 95.9479 28.1327C93.9223 28.1327 92.8955 27.5959 92.8955 26.0802C92.8955 24.5645 94.094 23.947 96.796 23.947C97.7176 23.947 98.5202 23.9716 99.0774 24.0628V23.6067L99.0845 23.6032ZM99.0738 25.0242C98.5622 24.9645 98.026 24.954 97.4653 24.954C96.5086 24.954 96.1021 25.1645 96.1021 25.6311C96.1021 26.0978 96.4385 26.2837 97.3707 26.2837C98.3836 26.2837 99.0704 25.8416 99.0704 25.0242H99.0738Z" fill="black"/>
<path d="M113.933 20.6983C113.316 22.0491 112.058 25.4664 111.416 26.8207C110.509 28.9188 109.506 29.8275 106.78 29.8275C105.336 29.8275 104.334 29.617 103.426 29.3608C103.531 28.9749 103.833 27.4592 103.892 26.9821C104.709 27.3189 105.767 27.4943 106.734 27.4943C107.551 27.4943 107.992 27.2943 108.248 26.7119C107.246 26.7014 106.328 26.7014 105.872 26.7224C105.466 25.7787 104.008 22.2701 103.311 20.6948H107.166C107.316 21.2667 107.782 22.5613 108.168 23.7262C108.399 24.4138 108.574 25.0313 108.714 25.533H108.82C108.97 25.0313 109.181 24.4138 109.391 23.7156C109.776 22.5508 110.242 21.1965 110.369 20.6948H113.933V20.6983Z" fill="black"/>
<path d="M23.219 29.8308C21.1408 29.8202 19.294 28.6449 18.3933 26.7608L18.3793 26.7292L15.9647 29.294C15.6353 29.6413 15.1937 29.8343 14.7171 29.8343C14.2755 29.8343 13.855 29.6659 13.5361 29.3606C12.8492 28.7045 12.8212 27.6099 13.473 26.9187L19.5849 20.4209L19.5918 20.428C20.5906 19.5052 21.8733 19 23.2365 19H23.261C25.3392 19.0105 27.1861 20.1859 28.0867 22.0699L28.1008 22.1015L30.5153 19.5368C30.8413 19.193 31.2863 19 31.763 19C32.2045 19 32.6251 19.1684 32.944 19.4736C33.6308 20.1297 33.6588 21.2244 33.0106 21.9156L26.8952 28.4063L26.8882 28.3993C25.8929 29.322 24.6068 29.8308 23.2435 29.8308H23.219ZM23.24 22.519C22.2062 22.519 21.3581 23.3681 21.3546 24.4101C21.3511 25.4557 22.1922 26.3117 23.233 26.3188C24.2774 26.3188 25.1254 25.4697 25.129 24.4277C25.1324 23.3821 24.2914 22.5261 23.2505 22.519H23.24Z" fill="black"/>
</g>
</g>
<defs>
<clipPath id="clip0_1000_5698">
<rect width="101" height="11" fill="white" transform="translate(13 19)"/>
</clipPath>
</defs>
</svg>
