<svg width="128" height="47" viewBox="0 0 128 47" fill="none" xmlns="http://www.w3.org/2000/svg">
<g clip-path="url(#clip0_1265_5142)">
<path d="M43.0685 8C46.5042 8 49.2978 10.3846 49.3621 13.7034C49.3943 14.6377 48.7201 15.1537 47.9814 15.1537C47.2428 15.1537 46.6651 14.6384 46.6329 13.768C46.6007 11.8987 45.0276 10.513 43.0363 10.513C41.1736 10.513 39.7614 11.8341 39.7614 13.6388C39.7614 15.6043 41.0778 16.4748 43.8071 17.4737C46.7287 18.5371 49.3943 19.7936 49.3943 23.5316C49.3943 26.7866 46.8574 29.3965 43.3259 29.3965C39.7943 29.3965 37 26.948 37 23.6292C37 21.5668 37.9953 20.1166 38.9585 20.1166C39.7936 20.1166 40.307 20.6641 40.307 21.4053C40.307 22.0497 39.7614 22.3397 39.7614 23.5C39.7614 25.5624 41.431 26.8834 43.3259 26.8834C45.3165 26.8834 46.6329 25.4978 46.6329 23.8222C46.6329 21.7598 45.3165 20.8901 42.5872 19.9228C39.5369 18.8278 37 17.5059 37 13.8649C37 10.5783 39.6327 8 43.0685 8Z" fill="black"/>
<path d="M57.0819 29.3972C53.614 29.3972 50.7246 26.5935 50.7246 23.0486C50.7246 19.5037 53.6462 16.6362 57.1785 16.6362C60.9674 16.6362 63.6323 19.4722 63.6323 23.3393V28.0438C63.6323 28.8497 62.9902 29.3972 62.2516 29.3972C61.513 29.3972 60.8387 28.8497 60.8387 28.0438V23.4354C60.8387 20.8894 59.3936 19.1492 57.1141 19.1492C55.0913 19.1492 53.4861 20.8571 53.4861 23.0486C53.4861 25.0787 55.0591 26.8189 57.0505 26.8189C57.7891 26.8189 58.1102 26.6258 58.5599 26.6258C59.1698 26.6258 59.8119 27.1411 59.8119 27.8823C59.8119 28.8812 58.6235 29.3972 57.0827 29.3972H57.0819Z" fill="black"/>
<path d="M71.5435 39C67.9469 39 64.9609 36.4217 64.9609 33.0705C64.9609 31.9425 65.603 31.4272 66.3417 31.4272C67.0803 31.4272 67.6902 31.9109 67.7224 32.8452C67.7546 34.9399 69.4242 36.4863 71.5113 36.4863C73.7272 36.4863 75.1716 35.0683 75.1716 33.2313C75.1716 31.1366 73.5663 30.2669 70.8371 29.3965C67.658 28.3653 64.9609 26.9473 64.9609 23.0163C64.9609 19.4069 67.7224 16.6362 71.3183 16.6362C74.9142 16.6362 77.933 19.2784 77.933 22.7587C77.933 24.8857 77.0664 26.529 75.878 26.529C75.075 26.529 74.5295 25.9491 74.5295 25.2402C74.5295 24.5312 75.1716 24.1767 75.1716 22.8556C75.1716 20.6318 73.4376 19.15 71.3504 19.15C69.2633 19.15 67.7224 20.6971 67.7224 22.7272C67.7224 25.0148 69.3598 25.9822 72.0569 26.8842C75.1716 27.9154 77.933 29.2041 77.933 32.9744C77.933 36.3578 75.2681 39.0007 71.5435 39.0007V39Z" fill="black"/>
<path d="M85.8141 29.3969C82.2175 29.3969 79.2637 26.561 79.2637 23.0168C79.2637 19.4726 82.1216 16.6367 85.6532 16.6367C89.1847 16.6367 91.9147 19.1182 91.9147 22.2763C91.9147 23.5005 91.0481 24.2418 89.6352 24.2418H85.9428C85.2041 24.2418 84.6586 23.7265 84.6586 23.0491C84.6586 22.3717 85.2041 21.8888 85.9428 21.8888H88.7042C88.9609 21.8888 89.154 21.7596 89.154 21.502C89.154 20.5677 87.9656 19.1174 85.7504 19.1174C83.6954 19.1174 82.0258 20.8899 82.0258 23.0168C82.0258 25.1438 83.7276 26.8839 85.847 26.8839C88.2873 26.8839 89.0903 25.4337 90.0856 25.4337C90.9208 25.4337 91.3698 25.9812 91.3698 26.594C91.3698 27.1738 90.9844 27.6898 90.0213 28.3019C89.0581 28.914 87.6131 29.3977 85.8148 29.3977L85.8141 29.3969Z" fill="black"/>
</g>
<defs>
<clipPath id="clip0_1265_5142">
<rect width="54.9143" height="31" fill="white" transform="translate(37 8)"/>
</clipPath>
</defs>
</svg>
