<svg width="128" height="47" viewBox="0 0 128 47" fill="none" xmlns="http://www.w3.org/2000/svg">
<g clip-path="url(#clip0_1000_5176)">
<mask id="mask0_1000_5176" style="mask-type:luminance" maskUnits="userSpaceOnUse" x="28" y="11" width="72" height="26">
<path d="M99.9226 11.4644H28V36.5358H99.9226V11.4644Z" fill="white"/>
</mask>
<g mask="url(#mask0_1000_5176)">
<path d="M64.1327 22.146L62.043 28.0574L59.7682 22.146H56.5146L60.5353 31.6483H63.5508L67.2805 22.146H64.1327Z" fill="black"/>
<path d="M78.973 22.146H75.7988L73.6297 27.2277L71.249 22.146H67.8896L72.0161 30.3649L69.781 35.291H72.942L78.973 22.146Z" fill="black"/>
<path d="M83.2185 25.0114C83.5094 24.7003 83.9063 24.5447 84.3956 24.5447C84.9246 24.5447 85.3214 24.7003 85.5859 24.9984C85.8504 25.2966 85.996 25.6985 85.996 26.1911V31.6617H88.9982V25.6985C88.9982 24.5966 88.694 23.6762 88.0856 22.9761C87.4773 22.2632 86.5911 21.9131 85.4272 21.9131C84.885 21.9131 84.3559 22.0298 83.8401 22.2632C83.3243 22.4965 82.9407 22.8206 82.6895 23.2484V22.1594H79.793V31.6617H82.7953V26.217C82.7687 25.7114 82.9143 25.3225 83.2185 25.0114Z" fill="black"/>
<path d="M99.8698 26.7354C99.8698 25.2057 99.4333 24.0131 98.5604 23.1575C97.6875 22.3019 96.484 21.874 94.963 21.874C93.6403 21.874 92.4898 22.3407 91.5242 23.2741C90.5587 24.2075 90.0693 25.4131 90.0693 26.8909C90.0693 28.4336 90.5587 29.6651 91.5639 30.5855C92.5559 31.506 93.7594 31.9597 95.1878 31.9597C96.3649 31.9597 97.3569 31.6744 98.1504 31.1041C98.944 30.5337 99.4598 29.8207 99.7111 28.9392L97.2114 28.2521C96.9072 29.0818 96.2459 29.4966 95.2407 29.4966C94.6456 29.4966 94.1429 29.3281 93.7065 28.9652C93.27 28.6151 93.0452 28.1744 93.0188 27.6558H99.8169C99.8566 27.5132 99.8698 27.2151 99.8698 26.7354ZM93.0585 25.7632C93.0982 25.3613 93.2833 24.9853 93.6272 24.6482C93.9711 24.3112 94.434 24.1556 95.0027 24.1556C95.6508 24.1556 96.1268 24.3112 96.4575 24.6353C96.7749 24.9594 96.9601 25.3354 96.9865 25.7632H93.0585Z" fill="black"/>
<path d="M40.5345 36.5358C38.9514 36.5358 37.478 35.6983 36.6911 34.3501L28.8838 21.0625L31.1084 19.8064L38.9183 33.0965C39.2516 33.6657 39.8706 34.0182 40.5359 34.0182C41.2209 34.0182 41.8492 33.6501 42.1745 33.0589L42.1931 33.0265L53.4152 13.9806H46.5563C45.1596 13.9806 43.8529 14.7143 43.144 15.8953L40.1219 21.0703L37.8933 19.8206L40.9247 14.6288C42.0912 12.6764 44.2484 11.4644 46.555 11.4644H54.1453C55.329 11.4644 56.2919 12.4081 56.2919 13.5683C56.2919 13.8963 56.2125 14.2243 56.0618 14.516L56.0274 14.5782L44.4242 34.2711C43.6465 35.6685 42.1587 36.5358 40.5345 36.5358Z" fill="black"/>
<path d="M34.5085 24.2243C30.9203 24.2243 28 21.362 28 17.8437C28 14.3254 30.9203 11.4644 34.5085 11.4644C38.0967 11.4644 41.0183 14.3267 41.0183 17.8437C41.0183 21.3607 38.098 24.2243 34.5085 24.2243ZM34.5085 13.9819C32.3355 13.9819 30.5672 15.7151 30.5672 17.845C30.5672 19.9749 32.3355 21.7081 34.5085 21.7081C36.6815 21.7081 38.4499 19.9749 38.4499 17.845C38.4499 15.7151 36.6828 13.9819 34.5085 13.9819Z" fill="black"/>
</g>
</g>
<defs>
<clipPath id="clip0_1000_5176">
<rect width="72" height="26" fill="white" transform="translate(28 11)"/>
</clipPath>
</defs>
</svg>
